<?xml version="1.0" encoding="UTF-8" standalone="no"?>
<!-- Created with Inkscape (http://www.inkscape.org/) -->

<svg
   xmlns:dc="http://purl.org/dc/elements/1.1/"
   xmlns:cc="http://creativecommons.org/ns#"
   xmlns:rdf="http://www.w3.org/1999/02/22-rdf-syntax-ns#"
   xmlns:svg="http://www.w3.org/2000/svg"
   xmlns="http://www.w3.org/2000/svg"
   xmlns:sodipodi="http://sodipodi.sourceforge.net/DTD/sodipodi-0.dtd"
   xmlns:inkscape="http://www.inkscape.org/namespaces/inkscape"
   width="108.10063mm"
   height="38.56496mm"
   viewBox="0 0 108.10063 38.56496"
   version="1.1"
   id="svg4234"
   inkscape:version="0.92.4 (5da689c313, 2019-01-14)"
   sodipodi:docname="docs_curves.svg">
  <defs
     id="defs4228" />
  <sodipodi:namedview
     id="base"
     pagecolor="#ffffff"
     bordercolor="#666666"
     borderopacity="1.0"
     inkscape:pageopacity="0.0"
     inkscape:pageshadow="2"
     inkscape:zoom="1.4"
     inkscape:cx="-21.705406"
     inkscape:cy="90.578748"
     inkscape:document-units="mm"
     inkscape:current-layer="layer1"
     showgrid="false"
     fit-margin-top="0"
     fit-margin-left="0"
     fit-margin-right="0"
     fit-margin-bottom="0"
     inkscape:window-width="2560"
     inkscape:window-height="1377"
     inkscape:window-x="-8"
     inkscape:window-y="-8"
     inkscape:window-maximized="1" />
  <metadata
     id="metadata4231">
    <rdf:RDF>
      <cc:Work
         rdf:about="">
        <dc:format>image/svg+xml</dc:format>
        <dc:type
           rdf:resource="http://purl.org/dc/dcmitype/StillImage" />
        <dc:title></dc:title>
      </cc:Work>
    </rdf:RDF>
  </metadata>
  <g
     inkscape:label="Layer 1"
     inkscape:groupmode="layer"
     id="layer1"
     transform="translate(-57.83064,-128.03895)">
    <path
       d="m 165.84661,129.13962 c 0,-0.56057 -0.45544,-1.016 -1.016,-1.016 H 58.931307 c -0.560741,0 -1.016,0.45543 -1.016,1.016 v 7.32296 c 0,0.56074 0.455259,1.016 1.016,1.016 H 164.83061 c 0.56056,0 1.016,-0.45526 1.016,-1.016 z"
       style="fill:#8cd8f6;fill-opacity:1;fill-rule:evenodd;stroke:#006993;stroke-width:0.16933332;stroke-linecap:butt;stroke-linejoin:miter;stroke-miterlimit:10;stroke-dasharray:none;stroke-opacity:1"
       id="path4246"
       inkscape:connector-curvature="0" />
    <path
       d="m 78.470574,129.13962 c 0,-0.56057 -0.455225,-1.016 -1.016,-1.016 H 58.931307 c -0.560741,0 -1.016,0.45543 -1.016,1.016 v 7.32296 c 0,0.56074 0.455259,1.016 1.016,1.016 h 18.523267 c 0.560775,0 1.016,-0.45526 1.016,-1.016 z"
       style="fill:#43add7;fill-opacity:1;fill-rule:evenodd;stroke:#006993;stroke-width:0.16933332;stroke-linecap:butt;stroke-linejoin:miter;stroke-miterlimit:10;stroke-dasharray:none;stroke-opacity:1"
       id="path4248"
       inkscape:connector-curvature="0" />
    <g
       aria-label="GET"
       style="font-variant:normal;font-weight:800;font-size:3.52777767px;font-family:'Open Sans';-inkscape-font-specification:OpenSans-ExtraBold;writing-mode:lr-tb;fill:#272727;fill-opacity:1;fill-rule:nonzero;stroke:none;stroke-width:0.35277778"
       id="text4254">
      <path
         d="m 66.114704,132.58672 h 1.086927 v 1.35737 q -0.442694,0.15158 -0.973239,0.15158 -0.582221,0 -0.900893,-0.33762 -0.316948,-0.33762 -0.316948,-0.9629 0,-0.60979 0.347954,-0.94913 0.347955,-0.33934 0.974962,-0.33934 0.237712,0 0.447863,0.0448 0.211873,0.0448 0.368625,0.11368 l -0.215319,0.53399 q -0.272162,-0.13435 -0.597724,-0.13435 -0.298,0 -0.461642,0.19464 -0.16192,0.19293 -0.16192,0.55294 0,0.35312 0.146417,0.53916 0.148139,0.18431 0.425469,0.18431 0.151584,0 0.279053,-0.0293 v -0.39447 h -0.449585 z"
         style="stroke-width:0.35277778"
         id="path330"
         inkscape:connector-curvature="0" />
      <path
         d="m 69.210007,134.06122 h -1.495172 v -2.51837 h 1.495172 v 0.54605 h -0.814765 v 0.39619 h 0.754475 v 0.54604 h -0.754475 v 0.47543 h 0.814765 z"
         style="stroke-width:0.35277778"
         id="path332"
         inkscape:connector-curvature="0" />
      <path
         d="m 70.761921,134.06122 h -0.680406 v -1.96198 h -0.61495 v -0.55639 h 1.908583 v 0.55639 h -0.613227 z"
         style="stroke-width:0.35277778"
         id="path334"
         inkscape:connector-curvature="0" />
    </g>
    <g
       aria-label="/api/spectrum"
       style="font-variant:normal;font-weight:bold;font-size:3.52777767px;font-family:Consolas;-inkscape-font-specification:Consolas-Bold;writing-mode:lr-tb;fill:#272727;fill-opacity:1;fill-rule:nonzero;stroke:none;stroke-width:0.35277778"
       id="text4260">
      <path
         d="m 82.981753,134.25157 h -0.408244 l 1.202339,-2.8043 h 0.409966 z"
         style="stroke-width:0.35277778"
         id="path303"
         inkscape:connector-curvature="0" />
      <path
         d="m 85.72575,133.88123 -0.01034,-0.2291 q -0.05512,0.0586 -0.115411,0.10852 -0.06029,0.0482 -0.132636,0.0844 -0.07235,0.0362 -0.158474,0.0551 -0.0844,0.0207 -0.186035,0.0207 -0.134359,0 -0.235989,-0.0396 -0.101631,-0.0396 -0.170533,-0.11025 -0.0689,-0.0706 -0.105075,-0.17053 -0.03445,-0.0999 -0.03445,-0.22049 0,-0.12402 0.05168,-0.22909 0.0534,-0.10508 0.160197,-0.18087 0.108521,-0.0758 0.268718,-0.11886 0.161919,-0.0431 0.37896,-0.0431 h 0.229099 V 132.703 q 0,-0.0672 -0.01895,-0.12058 -0.01895,-0.0551 -0.06201,-0.093 -0.04134,-0.0379 -0.10852,-0.0586 -0.06718,-0.0207 -0.165365,-0.0207 -0.155029,0 -0.306613,0.0362 -0.149862,0.0345 -0.291111,0.0982 v -0.3359 q 0.125746,-0.0499 0.289388,-0.0827 0.165365,-0.0327 0.342787,-0.0327 0.194648,0 0.334175,0.0379 0.139526,0.0362 0.229098,0.11024 0.0913,0.0741 0.134359,0.18604 0.04306,0.11024 0.04306,0.25838 v 1.19545 z m -0.06029,-0.77343 h -0.256659 q -0.106798,0 -0.180868,0.0207 -0.07407,0.0207 -0.120578,0.0568 -0.04651,0.0362 -0.0689,0.0844 -0.02067,0.0465 -0.02067,0.0999 0,0.1068 0.0689,0.16364 0.0689,0.0551 0.187758,0.0551 0.08785,0 0.18259,-0.0637 0.09474,-0.0637 0.208428,-0.18259 z"
         style="stroke-width:0.35277778"
         id="path305"
         inkscape:connector-curvature="0" />
      <path
         d="m 88.142471,132.97517 q 0,0.24115 -0.0689,0.41685 -0.06718,0.1757 -0.18948,0.29284 -0.120578,0.11541 -0.285943,0.17225 -0.165364,0.0551 -0.360012,0.0551 -0.06546,0 -0.130914,-0.009 -0.06546,-0.009 -0.118856,-0.0224 v 0.68385 h -0.420301 v -2.43396 h 0.363457 l 0.01034,0.25838 q 0.0534,-0.0672 0.110243,-0.1223 0.05857,-0.0551 0.125746,-0.093 0.06718,-0.0396 0.144694,-0.0603 0.07751,-0.0207 0.173977,-0.0207 0.155029,0 0.275608,0.062 0.120578,0.062 0.201538,0.17743 0.08268,0.11368 0.125746,0.27733 0.04306,0.16191 0.04306,0.36518 z m -0.440972,0.0172 q 0,-0.14469 -0.02067,-0.24632 -0.02067,-0.10163 -0.06029,-0.16709 -0.0379,-0.0655 -0.09474,-0.0947 -0.05512,-0.031 -0.127468,-0.031 -0.106798,0 -0.204984,0.0861 -0.09646,0.0861 -0.204983,0.23427 v 0.76481 q 0.04995,0.0189 0.122301,0.031 0.07407,0.0121 0.149862,0.0121 0.09991,0 0.180867,-0.0413 0.08268,-0.0413 0.139527,-0.11713 0.05857,-0.0758 0.08957,-0.18431 0.03101,-0.11025 0.03101,-0.24633 z"
         style="stroke-width:0.35277778"
         id="path307"
         inkscape:connector-curvature="0" />
      <path
         d="m 89.537721,131.65225 q 0,0.0568 -0.02067,0.1068 -0.02067,0.0499 -0.05857,0.0879 -0.03617,0.0362 -0.08613,0.0586 -0.04995,0.0207 -0.108521,0.0207 -0.05857,0 -0.110243,-0.0207 -0.04995,-0.0224 -0.08785,-0.0586 -0.03617,-0.0379 -0.05684,-0.0879 -0.02067,-0.05 -0.02067,-0.1068 0,-0.0568 0.02067,-0.1068 0.02067,-0.0499 0.05684,-0.0878 0.0379,-0.0379 0.08785,-0.0586 0.05168,-0.0224 0.110243,-0.0224 0.05857,0 0.108521,0.0224 0.04995,0.0207 0.08613,0.0586 0.0379,0.0379 0.05857,0.0878 0.02067,0.05 0.02067,0.1068 z m -0.465087,0.80615 h -0.494372 v -0.32728 h 0.925008 v 1.42282 h 0.504707 v 0.32729 h -1.490004 v -0.32729 h 0.554661 z"
         style="stroke-width:0.35277778"
         id="path309"
         inkscape:connector-curvature="0" />
      <path
         d="m 90.740039,134.25157 h -0.408244 l 1.202338,-2.8043 h 0.409966 z"
         style="stroke-width:0.35277778"
         id="path311"
         inkscape:connector-curvature="0" />
      <path
         d="m 93.830276,133.36618 q 0,0.14987 -0.06718,0.25666 -0.06546,0.10508 -0.1757,0.17226 -0.10852,0.0655 -0.248047,0.0947 -0.137803,0.031 -0.282497,0.031 -0.192926,0 -0.347955,-0.0189 -0.155029,-0.0172 -0.292833,-0.0517 v -0.37896 q 0.161919,0.0672 0.322116,0.0982 0.16192,0.0293 0.304891,0.0293 0.165365,0 0.246325,-0.0517 0.08268,-0.0534 0.08268,-0.1378 0,-0.0396 -0.01723,-0.0723 -0.01722,-0.0327 -0.06546,-0.062 -0.04651,-0.031 -0.132637,-0.062 -0.08613,-0.0327 -0.225653,-0.0724 -0.129191,-0.0362 -0.227377,-0.081 -0.09646,-0.0465 -0.160197,-0.10852 -0.06373,-0.062 -0.09646,-0.14297 -0.03101,-0.0827 -0.03101,-0.19293 0,-0.10679 0.04823,-0.20154 0.04823,-0.0947 0.142972,-0.16536 0.09646,-0.0724 0.239434,-0.11369 0.142971,-0.0413 0.334174,-0.0413 0.165365,0 0.292833,0.0172 0.127469,0.0172 0.225654,0.0379 v 0.34279 q -0.149862,-0.0482 -0.282498,-0.0672 -0.130913,-0.0207 -0.260105,-0.0207 -0.129191,0 -0.208428,0.0465 -0.07751,0.0465 -0.07751,0.12919 0,0.0396 0.0155,0.0706 0.0155,0.031 0.06029,0.0603 0.04651,0.0293 0.127468,0.062 0.08268,0.031 0.217041,0.0689 0.151584,0.0431 0.254937,0.093 0.103353,0.0482 0.165365,0.11025 0.06373,0.062 0.0913,0.14125 0.02756,0.0792 0.02756,0.18086 z"
         style="stroke-width:0.35277778"
         id="path313"
         inkscape:connector-curvature="0" />
      <path
         d="m 95.900757,132.97517 q 0,0.24115 -0.0689,0.41685 -0.06718,0.1757 -0.18948,0.29284 -0.120579,0.11541 -0.285943,0.17225 -0.165365,0.0551 -0.360013,0.0551 -0.06546,0 -0.130913,-0.009 -0.06546,-0.009 -0.118856,-0.0224 v 0.68385 H 94.32635 v -2.43396 h 0.363458 l 0.01033,0.25838 q 0.0534,-0.0672 0.110243,-0.1223 0.05857,-0.0551 0.125746,-0.093 0.06718,-0.0396 0.144694,-0.0603 0.07751,-0.0207 0.173977,-0.0207 0.15503,0 0.275608,0.062 0.120578,0.062 0.201538,0.17743 0.08268,0.11368 0.125746,0.27733 0.04306,0.16191 0.04306,0.36518 z m -0.440972,0.0172 q 0,-0.14469 -0.02067,-0.24632 -0.02067,-0.10163 -0.06029,-0.16709 -0.0379,-0.0655 -0.09474,-0.0947 -0.05512,-0.031 -0.127469,-0.031 -0.106798,0 -0.204983,0.0861 -0.09646,0.0861 -0.204983,0.23427 v 0.76481 q 0.04995,0.0189 0.122301,0.031 0.07407,0.0121 0.149861,0.0121 0.09991,0 0.180868,-0.0413 0.08268,-0.0413 0.139526,-0.11713 0.05857,-0.0758 0.08957,-0.18431 0.03101,-0.11025 0.03101,-0.24633 z"
         style="stroke-width:0.35277778"
         id="path315"
         inkscape:connector-curvature="0" />
      <path
         d="m 97.790378,132.87181 q 0,0.0431 -0.0034,0.11197 -0.0017,0.0689 -0.0069,0.12919 h -1.150662 q 0,0.11541 0.03445,0.20326 0.03617,0.0879 0.09991,0.14814 0.06546,0.0586 0.155029,0.0896 0.0913,0.031 0.201538,0.031 0.127469,0 0.272163,-0.0189 0.146416,-0.0207 0.303168,-0.0655 v 0.33418 q -0.06718,0.0189 -0.146417,0.0344 -0.07924,0.0155 -0.161919,0.0276 -0.08268,0.0121 -0.167087,0.0172 -0.0844,0.007 -0.163642,0.007 -0.199816,0 -0.35829,-0.0568 -0.158475,-0.0568 -0.268718,-0.16709 -0.110243,-0.11196 -0.168809,-0.2756 -0.05857,-0.16365 -0.05857,-0.37897 0,-0.21359 0.05857,-0.38757 0.05857,-0.1757 0.165364,-0.29972 0.106798,-0.12575 0.258382,-0.19293 0.153307,-0.0689 0.341065,-0.0689 0.186035,0 0.329007,0.0586 0.142971,0.0568 0.239434,0.16019 0.09646,0.10336 0.146416,0.24633 0.04995,0.14297 0.04995,0.3135 z m -0.427192,-0.0603 q 0.0017,-0.10335 -0.02584,-0.17914 -0.02756,-0.0775 -0.07579,-0.12747 -0.04651,-0.0499 -0.110243,-0.0741 -0.06201,-0.0241 -0.134359,-0.0241 -0.158474,0 -0.260105,0.1068 -0.10163,0.10508 -0.120578,0.298 z"
         style="stroke-width:0.35277778"
         id="path317"
         inkscape:connector-curvature="0" />
      <path
         d="m 99.621433,133.81405 q -0.124024,0.0499 -0.25666,0.0741 -0.132636,0.0241 -0.27733,0.0241 -0.208428,0 -0.373793,-0.0568 -0.165364,-0.0568 -0.280775,-0.16881 -0.115411,-0.11197 -0.177423,-0.27733 -0.06029,-0.16537 -0.06029,-0.38241 0,-0.21015 0.06546,-0.38068 0.06718,-0.17053 0.187758,-0.29111 0.120578,-0.12058 0.289388,-0.18604 0.170532,-0.0654 0.37896,-0.0654 0.170533,0 0.285943,0.0189 0.117133,0.0172 0.210151,0.0448 v 0.40824 q -0.106798,-0.0534 -0.232544,-0.0827 -0.124023,-0.0293 -0.235989,-0.0293 -0.117133,0 -0.210151,0.0396 -0.09302,0.0396 -0.156752,0.11024 -0.06373,0.0706 -0.09819,0.17226 -0.03273,0.0999 -0.03273,0.22048 0,0.12575 0.03617,0.22566 0.03617,0.0999 0.101631,0.17053 0.06718,0.0689 0.160197,0.1068 0.09302,0.0362 0.206705,0.0362 0.05512,0 0.115411,-0.007 0.06201,-0.009 0.122301,-0.0224 0.06201,-0.0155 0.120578,-0.0345 0.06029,-0.0189 0.111966,-0.0413 z"
         style="stroke-width:0.35277778"
         id="path319"
         inkscape:connector-curvature="0" />
      <path
         d="m 101.58856,133.864 q -0.11369,0.0258 -0.2291,0.0413 -0.11541,0.0155 -0.21876,0.0155 -0.17226,0 -0.298,-0.0362 -0.12403,-0.0362 -0.20671,-0.11024 -0.081,-0.0741 -0.12058,-0.18776 -0.0379,-0.11541 -0.0379,-0.27389 v -0.85438 h -0.47026 v -0.32728 h 0.47026 v -0.44787 l 0.43063,-0.11196 v 0.55983 h 0.68041 v 0.32728 h -0.68041 v 0.82338 q 0,0.14986 0.0689,0.22738 0.0689,0.0758 0.23082,0.0758 0.10335,0 0.20154,-0.0172 0.0982,-0.0172 0.17914,-0.0396 z"
         style="stroke-width:0.35277778"
         id="path321"
         inkscape:connector-curvature="0" />
      <path
         d="m 103.21119,132.81152 q 0.003,-0.0982 -0.0103,-0.16708 -0.0121,-0.0689 -0.0413,-0.11369 -0.0276,-0.0448 -0.0689,-0.0655 -0.0413,-0.0207 -0.0947,-0.0207 -0.093,0 -0.19293,0.0775 -0.0982,0.0758 -0.21704,0.25149 v 1.1076 h -0.43063 v -1.75011 h 0.38068 l 0.0155,0.25493 q 0.0431,-0.0672 0.0965,-0.12057 0.0551,-0.0534 0.12058,-0.0913 0.0672,-0.0396 0.14814,-0.0603 0.081,-0.0207 0.17742,-0.0207 0.13264,0 0.23427,0.0465 0.10335,0.0448 0.17226,0.13436 0.0706,0.0896 0.10335,0.22565 0.0344,0.13436 0.0293,0.31178 z"
         style="stroke-width:0.35277778"
         id="path323"
         inkscape:connector-curvature="0" />
      <path
         d="m 104.44106,132.13112 v 1.14032 q 0,0.14298 0.0534,0.21704 0.0534,0.0724 0.16192,0.0724 0.10507,0 0.20153,-0.0861 0.0982,-0.0879 0.20671,-0.23598 v -1.1076 h 0.4203 v 1.75011 h -0.36346 l -0.0103,-0.25839 q -0.0551,0.0672 -0.11197,0.1223 -0.0568,0.0551 -0.12402,0.0947 -0.0655,0.0379 -0.14469,0.0586 -0.0775,0.0224 -0.17226,0.0224 -0.13436,0 -0.23599,-0.0431 -0.0999,-0.0448 -0.16709,-0.12575 -0.0672,-0.081 -0.10163,-0.19292 -0.0327,-0.11369 -0.0327,-0.25322 v -1.17477 z"
         style="stroke-width:0.35277778"
         id="path325"
         inkscape:connector-curvature="0" />
      <path
         d="m 107.19885,133.88123 v -1.19201 q 0,-0.0654 -0.003,-0.11369 -0.003,-0.0499 -0.0138,-0.0827 -0.0103,-0.0327 -0.031,-0.0482 -0.019,-0.0172 -0.0534,-0.0172 -0.0534,0 -0.10507,0.0723 -0.0517,0.0724 -0.11714,0.24633 v 1.13516 H 106.515 v -1.19201 q 0,-0.0654 -0.003,-0.11369 -0.003,-0.0499 -0.0138,-0.0827 -0.0103,-0.0327 -0.031,-0.0482 -0.0207,-0.0172 -0.0551,-0.0172 -0.0448,0 -0.0999,0.0723 -0.0551,0.0724 -0.1223,0.24633 v 1.13516 h -0.36346 v -1.75011 h 0.31178 l 0.007,0.25493 q 0.0379,-0.0775 0.0758,-0.13263 0.0379,-0.0551 0.081,-0.0896 0.0431,-0.0362 0.0913,-0.0517 0.0499,-0.0155 0.11196,-0.0155 0.14642,0 0.22221,0.0775 0.0775,0.0758 0.0878,0.21187 0.0413,-0.0775 0.081,-0.13263 0.0413,-0.0551 0.0844,-0.0896 0.0448,-0.0362 0.0947,-0.0517 0.0517,-0.0155 0.11369,-0.0155 0.1912,0 0.28249,0.13435 0.0913,0.13264 0.0913,0.39447 v 1.25574 z"
         style="stroke-width:0.35277778"
         id="path327"
         inkscape:connector-curvature="0" />
    </g>
    <g
       aria-label="Currentspectrumsnapshot"
       style="font-variant:normal;font-weight:bold;font-size:3.52777767px;font-family:'Open Sans';-inkscape-font-specification:OpenSans-Bold;writing-mode:lr-tb;fill:#272727;fill-opacity:1;fill-rule:nonzero;stroke:none;stroke-width:0.35277778"
       id="text4266">
      <path
         d="m 112.79224,131.77712 q -0.30145,0 -0.46681,0.22737 -0.16537,0.22566 -0.16537,0.63046 0,0.84232 0.63218,0.84232 0.26527,0 0.64251,-0.13263 v 0.44786 q -0.31006,0.12919 -0.69247,0.12919 -0.54949,0 -0.8406,-0.33245 -0.29111,-0.33418 -0.29111,-0.95774 0,-0.39274 0.14297,-0.6873 0.14297,-0.29627 0.40997,-0.45303 0.26871,-0.15847 0.62873,-0.15847 0.3669,0 0.73725,0.17742 l -0.17226,0.43408 q -0.14125,-0.0672 -0.28422,-0.11713 -0.14297,-0.0499 -0.28077,-0.0499 z"
         style="stroke-width:0.35277778"
         id="path256"
         inkscape:connector-curvature="0" />
      <path
         d="m 115.29335,133.88724 -0.0706,-0.24633 h -0.0276 q -0.0844,0.13436 -0.23944,0.20843 -0.15503,0.0724 -0.35312,0.0724 -0.33934,0 -0.51159,-0.18087 -0.17226,-0.18259 -0.17226,-0.52365 v -1.25574 h 0.52538 v 1.12482 q 0,0.20843 0.0741,0.31351 0.0741,0.10335 0.23599,0.10335 0.22048,0 0.31867,-0.14642 0.0982,-0.14814 0.0982,-0.4892 v -0.90606 h 0.52538 v 1.92581 z"
         style="stroke-width:0.35277778"
         id="path258"
         inkscape:connector-curvature="0" />
      <path
         d="m 117.32242,131.92526 q 0.1068,0 0.17743,0.0155 l -0.0396,0.49265 q -0.0637,-0.0172 -0.15503,-0.0172 -0.25149,0 -0.39274,0.12919 -0.13953,0.12919 -0.13953,0.36174 v 0.98013 h -0.52538 v -1.92581 h 0.39791 l 0.0775,0.32384 h 0.0258 q 0.0896,-0.16192 0.24115,-0.26011 0.15331,-0.0999 0.33245,-0.0999 z"
         style="stroke-width:0.35277778"
         id="path260"
         inkscape:connector-curvature="0" />
      <path
         d="m 118.92439,131.92526 q 0.1068,0 0.17742,0.0155 l -0.0396,0.49265 q -0.0637,-0.0172 -0.15502,-0.0172 -0.2515,0 -0.39275,0.12919 -0.13952,0.12919 -0.13952,0.36174 v 0.98013 h -0.52538 v -1.92581 h 0.39791 l 0.0775,0.32384 h 0.0258 q 0.0896,-0.16192 0.24116,-0.26011 0.15331,-0.0999 0.33245,-0.0999 z"
         style="stroke-width:0.35277778"
         id="path262"
         inkscape:connector-curvature="0" />
      <path
         d="m 120.17847,132.29905 q -0.16709,0 -0.26183,0.1068 -0.0947,0.10507 -0.10852,0.29972 h 0.73725 q -0.003,-0.19465 -0.10163,-0.29972 -0.0982,-0.1068 -0.26527,-0.1068 z m 0.0741,1.62264 q -0.46509,0 -0.72691,-0.25666 -0.26183,-0.25666 -0.26183,-0.72692 0,-0.48403 0.24115,-0.74758 0.24288,-0.26527 0.67008,-0.26527 0.40824,0 0.63562,0.23254 0.22737,0.23254 0.22737,0.64251 v 0.25494 h -1.24195 q 0.009,0.22393 0.13263,0.34967 0.12403,0.12575 0.34796,0.12575 0.17397,0 0.329,-0.0362 0.15503,-0.0362 0.32384,-0.11541 v 0.40652 q -0.1378,0.0689 -0.29455,0.10163 -0.15676,0.0345 -0.38241,0.0345 z"
         style="stroke-width:0.35277778"
         id="path264"
         inkscape:connector-curvature="0" />
      <path
         d="m 123.24281,133.88724 h -0.52538 v -1.12483 q 0,-0.20842 -0.0741,-0.31178 -0.0741,-0.10507 -0.23599,-0.10507 -0.22049,0 -0.31867,0.14814 -0.0982,0.14641 -0.0982,0.48748 v 0.90606 h -0.52537 v -1.92581 h 0.40135 l 0.0706,0.24632 h 0.0293 q 0.0879,-0.13952 0.24116,-0.21015 0.15502,-0.0723 0.35139,-0.0723 0.3359,0 0.50988,0.18259 0.17398,0.18086 0.17398,0.52365 z"
         style="stroke-width:0.35277778"
         id="path266"
         inkscape:connector-curvature="0" />
      <path
         d="m 124.59491,133.50311 q 0.1378,0 0.33073,-0.0603 v 0.39102 q -0.19637,0.0879 -0.48232,0.0879 -0.31522,0 -0.45992,-0.15848 -0.14297,-0.16019 -0.14297,-0.47886 v -0.92846 h -0.25149 v -0.22221 l 0.28939,-0.1757 0.15158,-0.40652 h 0.3359 v 0.40997 h 0.53916 v 0.39446 h -0.53916 v 0.92846 q 0,0.11196 0.062,0.16536 0.0637,0.0534 0.16709,0.0534 z"
         style="stroke-width:0.35277778"
         id="path268"
         inkscape:connector-curvature="0" />
      <path
         d="m 127.57475,133.31535 q 0,0.29628 -0.2067,0.45131 -0.20499,0.15503 -0.61495,0.15503 -0.21015,0 -0.35829,-0.0293 -0.14814,-0.0276 -0.27733,-0.0827 v -0.43408 q 0.14641,0.0689 0.329,0.11541 0.18432,0.0465 0.32384,0.0465 0.28595,0 0.28595,-0.16536 0,-0.062 -0.0379,-0.0999 -0.0379,-0.0396 -0.13091,-0.0879 -0.093,-0.05 -0.24805,-0.11541 -0.22221,-0.093 -0.32728,-0.17226 -0.10336,-0.0792 -0.15159,-0.18086 -0.0465,-0.10336 -0.0465,-0.25322 0,-0.25666 0.1981,-0.39619 0.19981,-0.14124 0.56499,-0.14124 0.34796,0 0.67696,0.15158 l -0.15847,0.37896 q -0.1447,-0.062 -0.27044,-0.10163 -0.12575,-0.0396 -0.25666,-0.0396 -0.23254,0 -0.23254,0.12575 0,0.0706 0.0741,0.1223 0.0758,0.0517 0.32901,0.15331 0.22566,0.0913 0.33073,0.17053 0.10508,0.0792 0.15503,0.18259 0.0499,0.10335 0.0499,0.24632 z"
         style="stroke-width:0.35277778"
         id="path270"
         inkscape:connector-curvature="0" />
      <path
         d="m 129.04247,133.92169 q -0.33935,0 -0.53227,-0.24633 h -0.0276 q 0.0276,0.24116 0.0276,0.27906 v 0.78031 h -0.52538 v -2.7733 h 0.42719 l 0.0741,0.24977 h 0.0241 q 0.18431,-0.28594 0.54605,-0.28594 0.34106,0 0.53399,0.26355 0.19292,0.26355 0.19292,0.73208 0,0.30833 -0.0913,0.53571 -0.0896,0.22738 -0.25666,0.34623 -0.16709,0.11886 -0.39274,0.11886 z m -0.15503,-1.57613 q -0.19465,0 -0.28422,0.12058 -0.0896,0.11885 -0.093,0.39446 v 0.0568 q 0,0.31006 0.0913,0.44442 0.093,0.13436 0.29284,0.13436 0.35312,0 0.35312,-0.58222 0,-0.28422 -0.0878,-0.42547 -0.0861,-0.14297 -0.27216,-0.14297 z"
         style="stroke-width:0.35277778"
         id="path272"
         inkscape:connector-curvature="0" />
      <path
         d="m 131.01474,132.29905 q -0.16709,0 -0.26183,0.1068 -0.0947,0.10507 -0.10852,0.29972 h 0.73725 q -0.003,-0.19465 -0.10163,-0.29972 -0.0982,-0.1068 -0.26527,-0.1068 z m 0.0741,1.62264 q -0.46509,0 -0.72692,-0.25666 -0.26183,-0.25666 -0.26183,-0.72692 0,-0.48403 0.24116,-0.74758 0.24288,-0.26527 0.67007,-0.26527 0.40825,0 0.63562,0.23254 0.22738,0.23254 0.22738,0.64251 v 0.25494 h -1.24196 q 0.009,0.22393 0.13264,0.34967 0.12402,0.12575 0.34795,0.12575 0.17398,0 0.32901,-0.0362 0.15503,-0.0362 0.32384,-0.11541 v 0.40652 q -0.13781,0.0689 -0.29456,0.10163 -0.15675,0.0345 -0.3824,0.0345 z"
         style="stroke-width:0.35277778"
         id="path274"
         inkscape:connector-curvature="0" />
      <path
         d="m 133.08345,133.92169 q -0.89917,0 -0.89917,-0.98702 0,-0.49093 0.2446,-0.74931 0.2446,-0.2601 0.70108,-0.2601 0.33417,0 0.59944,0.13091 l -0.15503,0.40652 q -0.12402,-0.0499 -0.23082,-0.081 -0.1068,-0.0327 -0.21359,-0.0327 -0.40997,0 -0.40997,0.58222 0,0.565 0.40997,0.565 0.15158,0 0.28077,-0.0396 0.12919,-0.0413 0.25838,-0.12747 v 0.44959 q -0.12747,0.081 -0.25838,0.11196 -0.12919,0.031 -0.32728,0.031 z"
         style="stroke-width:0.35277778"
         id="path276"
         inkscape:connector-curvature="0" />
      <path
         d="m 134.92671,133.50311 q 0.1378,0 0.33073,-0.0603 v 0.39102 q -0.19637,0.0879 -0.48231,0.0879 -0.31523,0 -0.45992,-0.15848 -0.14298,-0.16019 -0.14298,-0.47886 v -0.92846 h -0.25149 v -0.22221 l 0.28939,-0.1757 0.15158,-0.40652 h 0.3359 v 0.40997 h 0.53916 v 0.39446 h -0.53916 v 0.92846 q 0,0.11196 0.062,0.16536 0.0637,0.0534 0.16709,0.0534 z"
         style="stroke-width:0.35277778"
         id="path278"
         inkscape:connector-curvature="0" />
      <path
         d="m 136.72168,131.92526 q 0.1068,0 0.17742,0.0155 l -0.0396,0.49265 q -0.0637,-0.0172 -0.15503,-0.0172 -0.25149,0 -0.39274,0.12919 -0.13952,0.12919 -0.13952,0.36174 v 0.98013 h -0.52538 v -1.92581 h 0.39791 l 0.0775,0.32384 h 0.0258 q 0.0896,-0.16192 0.24116,-0.26011 0.1533,-0.0999 0.33245,-0.0999 z"
         style="stroke-width:0.35277778"
         id="path280"
         inkscape:connector-curvature="0" />
      <path
         d="m 138.61303,133.88724 -0.0706,-0.24633 h -0.0276 q -0.0844,0.13436 -0.23943,0.20843 -0.15503,0.0724 -0.35313,0.0724 -0.33934,0 -0.51159,-0.18087 -0.17226,-0.18259 -0.17226,-0.52365 v -1.25574 h 0.52538 v 1.12482 q 0,0.20843 0.0741,0.31351 0.0741,0.10335 0.23599,0.10335 0.22048,0 0.31867,-0.14642 0.0982,-0.14814 0.0982,-0.4892 v -0.90606 h 0.52538 v 1.92581 z"
         style="stroke-width:0.35277778"
         id="path282"
         inkscape:connector-curvature="0" />
      <path
         d="m 141.29149,133.88724 h -0.52538 v -1.12483 q 0,-0.20842 -0.0706,-0.31178 -0.0689,-0.10507 -0.21877,-0.10507 -0.20153,0 -0.29283,0.14814 -0.0913,0.14814 -0.0913,0.48748 v 0.90606 h -0.52538 v -1.92581 h 0.40135 l 0.0706,0.24632 h 0.0293 q 0.0775,-0.13263 0.22393,-0.2067 0.14642,-0.0758 0.3359,-0.0758 0.43236,0 0.58566,0.28249 h 0.0465 q 0.0775,-0.13436 0.22738,-0.20842 0.15158,-0.0741 0.34106,-0.0741 0.32729,0 0.49437,0.16881 0.16881,0.16708 0.16881,0.53743 v 1.25574 h -0.5271 v -1.12483 q 0,-0.20842 -0.0706,-0.31178 -0.0689,-0.10507 -0.21876,-0.10507 -0.19293,0 -0.28939,0.1378 -0.0947,0.1378 -0.0947,0.43753 z"
         style="stroke-width:0.35277778"
         id="path284"
         inkscape:connector-curvature="0" />
      <path
         d="m 145.29125,133.31535 q 0,0.29628 -0.2067,0.45131 -0.20499,0.15503 -0.61495,0.15503 -0.21015,0 -0.35829,-0.0293 -0.14814,-0.0276 -0.27733,-0.0827 v -0.43408 q 0.14641,0.0689 0.329,0.11541 0.18432,0.0465 0.32384,0.0465 0.28595,0 0.28595,-0.16536 0,-0.062 -0.0379,-0.0999 -0.0379,-0.0396 -0.13091,-0.0879 -0.093,-0.05 -0.24805,-0.11541 -0.22221,-0.093 -0.32728,-0.17226 -0.10336,-0.0792 -0.15159,-0.18086 -0.0465,-0.10336 -0.0465,-0.25322 0,-0.25666 0.1981,-0.39619 0.19981,-0.14124 0.56499,-0.14124 0.34796,0 0.67696,0.15158 l -0.15847,0.37896 q -0.1447,-0.062 -0.27044,-0.10163 -0.12575,-0.0396 -0.25666,-0.0396 -0.23255,0 -0.23255,0.12575 0,0.0706 0.0741,0.1223 0.0758,0.0517 0.32901,0.15331 0.22565,0.0913 0.33073,0.17053 0.10508,0.0792 0.15503,0.18259 0.0499,0.10335 0.0499,0.24632 z"
         style="stroke-width:0.35277778"
         id="path286"
         inkscape:connector-curvature="0" />
      <path
         d="m 147.479,133.88724 h -0.52538 v -1.12483 q 0,-0.20842 -0.0741,-0.31178 -0.0741,-0.10507 -0.23599,-0.10507 -0.22048,0 -0.31867,0.14814 -0.0982,0.14641 -0.0982,0.48748 v 0.90606 h -0.52537 v -1.92581 h 0.40135 l 0.0706,0.24632 h 0.0293 q 0.0879,-0.13952 0.24116,-0.21015 0.15503,-0.0723 0.3514,-0.0723 0.33589,0 0.50987,0.18259 0.17398,0.18086 0.17398,0.52365 z"
         style="stroke-width:0.35277778"
         id="path288"
         inkscape:connector-curvature="0" />
      <path
         d="m 149.24279,133.88724 -0.10163,-0.26183 h -0.0138 q -0.13264,0.16709 -0.27389,0.23254 -0.13952,0.0637 -0.36518,0.0637 -0.27733,0 -0.43753,-0.15848 -0.15847,-0.15847 -0.15847,-0.4513 0,-0.30662 0.2136,-0.45131 0.21531,-0.14642 0.64767,-0.16192 l 0.33418,-0.0103 v -0.0844 q 0,-0.29283 -0.29972,-0.29283 -0.23083,0 -0.54261,0.13952 l -0.17397,-0.35484 q 0.33245,-0.17398 0.73725,-0.17398 0.38757,0 0.59427,0.16881 0.20671,0.16881 0.20671,0.51332 v 1.2833 z m -0.15503,-0.89228 -0.20326,0.007 q -0.2291,0.007 -0.34107,0.0827 -0.11196,0.0758 -0.11196,0.23082 0,0.22221 0.25493,0.22221 0.18259,0 0.29112,-0.10508 0.11024,-0.10507 0.11024,-0.27905 z"
         style="stroke-width:0.35277778"
         id="path290"
         inkscape:connector-curvature="0" />
      <path
         d="m 151.20856,133.92169 q -0.33934,0 -0.53227,-0.24633 h -0.0276 q 0.0276,0.24116 0.0276,0.27906 v 0.78031 h -0.52538 v -2.7733 h 0.42719 l 0.0741,0.24977 h 0.0241 q 0.18431,-0.28594 0.54605,-0.28594 0.34106,0 0.53399,0.26355 0.19292,0.26355 0.19292,0.73208 0,0.30833 -0.0913,0.53571 -0.0896,0.22738 -0.25666,0.34623 -0.16709,0.11886 -0.39274,0.11886 z m -0.15503,-1.57613 q -0.19465,0 -0.28422,0.12058 -0.0896,0.11885 -0.093,0.39446 v 0.0568 q 0,0.31006 0.0913,0.44442 0.093,0.13436 0.29284,0.13436 0.35312,0 0.35312,-0.58222 0,-0.28422 -0.0879,-0.42547 -0.0861,-0.14297 -0.27216,-0.14297 z"
         style="stroke-width:0.35277778"
         id="path292"
         inkscape:connector-curvature="0" />
      <path
         d="m 153.72688,133.31535 q 0,0.29628 -0.20671,0.45131 -0.20498,0.15503 -0.61495,0.15503 -0.21015,0 -0.35829,-0.0293 -0.14814,-0.0276 -0.27733,-0.0827 v -0.43408 q 0.14642,0.0689 0.32901,0.11541 0.18431,0.0465 0.32384,0.0465 0.28594,0 0.28594,-0.16536 0,-0.062 -0.0379,-0.0999 -0.0379,-0.0396 -0.13091,-0.0879 -0.093,-0.05 -0.24805,-0.11541 -0.22221,-0.093 -0.32728,-0.17226 -0.10335,-0.0792 -0.15159,-0.18086 -0.0465,-0.10336 -0.0465,-0.25322 0,-0.25666 0.19809,-0.39619 0.19981,-0.14124 0.56499,-0.14124 0.34796,0 0.67697,0.15158 l -0.15848,0.37896 q -0.14469,-0.062 -0.27044,-0.10163 -0.12574,-0.0396 -0.25666,-0.0396 -0.23254,0 -0.23254,0.12575 0,0.0706 0.0741,0.1223 0.0758,0.0517 0.329,0.15331 0.22566,0.0913 0.33073,0.17053 0.10508,0.0792 0.15503,0.18259 0.05,0.10335 0.05,0.24632 z"
         style="stroke-width:0.35277778"
         id="path294"
         inkscape:connector-curvature="0" />
      <path
         d="m 155.91462,133.88724 h -0.52538 v -1.12483 q 0,-0.41685 -0.31006,-0.41685 -0.22048,0 -0.31867,0.14986 -0.0982,0.14986 -0.0982,0.48576 v 0.90606 h -0.52538 v -2.68029 h 0.52538 v 0.54605 q 0,0.0637 -0.0121,0.29972 l -0.0121,0.15503 h 0.0276 q 0.1757,-0.28249 0.55811,-0.28249 0.33934,0 0.51504,0.18259 0.1757,0.18259 0.1757,0.52365 z"
         style="stroke-width:0.35277778"
         id="path296"
         inkscape:connector-curvature="0" />
      <path
         d="m 156.87398,132.92089 q 0,0.28594 0.093,0.43236 0.0947,0.14641 0.30661,0.14641 0.21015,0 0.30145,-0.14469 0.093,-0.14642 0.093,-0.43408 0,-0.28594 -0.093,-0.42892 -0.093,-0.14297 -0.30489,-0.14297 -0.21015,0 -0.30317,0.14297 -0.093,0.14125 -0.093,0.42892 z m 1.33153,0 q 0,0.47025 -0.24805,0.73553 -0.24804,0.26527 -0.69074,0.26527 -0.27733,0 -0.4892,-0.12058 -0.21188,-0.1223 -0.32556,-0.34968 -0.11369,-0.22737 -0.11369,-0.53054 0,-0.47198 0.24632,-0.73381 0.24633,-0.26182 0.69247,-0.26182 0.27733,0 0.4892,0.12057 0.21187,0.12058 0.32556,0.34624 0.11369,0.22565 0.11369,0.52882 z"
         style="stroke-width:0.35277778"
         id="path298"
         inkscape:connector-curvature="0" />
      <path
         d="m 159.45077,133.50311 q 0.13781,0 0.33073,-0.0603 v 0.39102 q -0.19637,0.0879 -0.48231,0.0879 -0.31523,0 -0.45992,-0.15848 -0.14297,-0.16019 -0.14297,-0.47886 v -0.92846 h -0.25149 v -0.22221 l 0.28938,-0.1757 0.15159,-0.40652 h 0.33589 v 0.40997 h 0.53916 v 0.39446 h -0.53916 v 0.92846 q 0,0.11196 0.062,0.16536 0.0637,0.0534 0.16708,0.0534 z"
         style="stroke-width:0.35277778"
         id="path300"
         inkscape:connector-curvature="0" />
    </g>
    <path
       d="m 165.84661,143.66013 c 0,-0.56074 -0.45544,-1.016 -1.016,-1.016 H 58.931307 c -0.560741,0 -1.016,0.45526 -1.016,1.016 v 7.32278 c 0,0.56074 0.455259,1.016 1.016,1.016 H 164.83061 c 0.56056,0 1.016,-0.45526 1.016,-1.016 z"
       style="fill:#8fd8f6;fill-opacity:1;fill-rule:evenodd;stroke:#006993;stroke-width:0.16933332;stroke-linecap:butt;stroke-linejoin:miter;stroke-miterlimit:10;stroke-dasharray:none;stroke-opacity:1"
       id="path4268"
       inkscape:connector-curvature="0" />
    <path
       d="m 78.470574,143.66013 c 0,-0.56074 -0.455225,-1.016 -1.016,-1.016 H 58.931307 c -0.560741,0 -1.016,0.45526 -1.016,1.016 v 7.32278 c 0,0.56074 0.455259,1.016 1.016,1.016 h 18.523267 c 0.560775,0 1.016,-0.45526 1.016,-1.016 z"
       style="fill:#43add7;fill-opacity:1;fill-rule:evenodd;stroke:#006993;stroke-width:0.16933332;stroke-linecap:butt;stroke-linejoin:miter;stroke-miterlimit:10;stroke-dasharray:none;stroke-opacity:1"
       id="path4270"
       inkscape:connector-curvature="0" />
    <g
       aria-label="GET"
       style="font-variant:normal;font-weight:800;font-size:3.52777767px;font-family:'Open Sans';-inkscape-font-specification:OpenSans-ExtraBold;writing-mode:lr-tb;fill:#272727;fill-opacity:1;fill-rule:nonzero;stroke:none;stroke-width:0.35277778"
       id="text4276">
      <path
         d="m 66.114704,147.10704 h 1.086927 v 1.35737 q -0.442694,0.15158 -0.973239,0.15158 -0.582221,0 -0.900893,-0.33762 -0.316948,-0.33761 -0.316948,-0.9629 0,-0.60978 0.347954,-0.94912 0.347955,-0.33935 0.974962,-0.33935 0.237712,0 0.447863,0.0448 0.211873,0.0448 0.368625,0.11369 l -0.215319,0.53399 q -0.272162,-0.13436 -0.597724,-0.13436 -0.298,0 -0.461642,0.19465 -0.16192,0.19292 -0.16192,0.55294 0,0.35312 0.146417,0.53915 0.148139,0.18432 0.425469,0.18432 0.151584,0 0.279053,-0.0293 v -0.39446 h -0.449585 z"
         style="stroke-width:0.35277778"
         id="path249"
         inkscape:connector-curvature="0" />
      <path
         d="m 69.210007,148.58154 h -1.495172 v -2.51836 h 1.495172 v 0.54605 h -0.814765 v 0.39618 h 0.754475 v 0.54605 h -0.754475 v 0.47542 h 0.814765 z"
         style="stroke-width:0.35277778"
         id="path251"
         inkscape:connector-curvature="0" />
      <path
         d="m 70.761921,148.58154 h -0.680406 v -1.96198 h -0.61495 v -0.55638 h 1.908583 v 0.55638 h -0.613227 z"
         style="stroke-width:0.35277778"
         id="path253"
         inkscape:connector-curvature="0" />
    </g>
    <g
       aria-label="/api/averages"
       style="font-variant:normal;font-weight:bold;font-size:3.52777767px;font-family:Consolas;-inkscape-font-specification:Consolas-Bold;writing-mode:lr-tb;fill:#272727;fill-opacity:1;fill-rule:nonzero;stroke:none;stroke-width:0.35277778"
       id="text4282">
      <path
         d="m 82.981753,148.77191 h -0.408244 l 1.202339,-2.8043 h 0.409966 z"
         style="stroke-width:0.35277778"
         id="path222"
         inkscape:connector-curvature="0" />
      <path
         d="m 85.72575,148.40157 -0.01034,-0.2291 q -0.05512,0.0586 -0.115411,0.10852 -0.06029,0.0482 -0.132636,0.0844 -0.07235,0.0362 -0.158474,0.0551 -0.0844,0.0207 -0.186035,0.0207 -0.134359,0 -0.235989,-0.0396 -0.101631,-0.0396 -0.170533,-0.11025 -0.0689,-0.0706 -0.105075,-0.17053 -0.03445,-0.0999 -0.03445,-0.22049 0,-0.12402 0.05168,-0.22909 0.0534,-0.10508 0.160197,-0.18087 0.108521,-0.0758 0.268718,-0.11886 0.161919,-0.0431 0.37896,-0.0431 h 0.229099 v -0.10508 q 0,-0.0672 -0.01895,-0.12058 -0.01895,-0.0551 -0.06201,-0.093 -0.04134,-0.0379 -0.10852,-0.0586 -0.06718,-0.0207 -0.165365,-0.0207 -0.155029,0 -0.306613,0.0362 -0.149862,0.0344 -0.291111,0.0982 v -0.3359 q 0.125746,-0.0499 0.289388,-0.0827 0.165365,-0.0327 0.342787,-0.0327 0.194648,0 0.334175,0.0379 0.139526,0.0362 0.229098,0.11024 0.0913,0.0741 0.134359,0.18604 0.04306,0.11024 0.04306,0.25838 v 1.19545 z m -0.06029,-0.77343 h -0.256659 q -0.106798,0 -0.180868,0.0207 -0.07407,0.0207 -0.120578,0.0568 -0.04651,0.0362 -0.0689,0.0844 -0.02067,0.0465 -0.02067,0.0999 0,0.1068 0.0689,0.16364 0.0689,0.0551 0.187758,0.0551 0.08785,0 0.18259,-0.0637 0.09474,-0.0637 0.208428,-0.18259 z"
         style="stroke-width:0.35277778"
         id="path224"
         inkscape:connector-curvature="0" />
      <path
         d="m 88.142471,147.49551 q 0,0.24115 -0.0689,0.41685 -0.06718,0.1757 -0.18948,0.29284 -0.120578,0.11541 -0.285943,0.17225 -0.165364,0.0551 -0.360012,0.0551 -0.06546,0 -0.130914,-0.009 -0.06546,-0.009 -0.118856,-0.0224 v 0.68385 h -0.420301 v -2.43396 h 0.363457 l 0.01034,0.25838 q 0.0534,-0.0672 0.110243,-0.1223 0.05857,-0.0551 0.125746,-0.093 0.06718,-0.0396 0.144694,-0.0603 0.07751,-0.0207 0.173977,-0.0207 0.155029,0 0.275608,0.062 0.120578,0.062 0.201538,0.17743 0.08268,0.11368 0.125746,0.27733 0.04306,0.16191 0.04306,0.36518 z m -0.440972,0.0172 q 0,-0.14469 -0.02067,-0.24632 -0.02067,-0.10163 -0.06029,-0.16709 -0.0379,-0.0655 -0.09474,-0.0947 -0.05512,-0.031 -0.127468,-0.031 -0.106798,0 -0.204984,0.0861 -0.09646,0.0861 -0.204983,0.23427 v 0.76481 q 0.04995,0.0189 0.122301,0.031 0.07407,0.0121 0.149862,0.0121 0.09991,0 0.180867,-0.0413 0.08268,-0.0413 0.139527,-0.11713 0.05857,-0.0758 0.08957,-0.18431 0.03101,-0.11025 0.03101,-0.24633 z"
         style="stroke-width:0.35277778"
         id="path226"
         inkscape:connector-curvature="0" />
      <path
         d="m 89.537721,146.17259 q 0,0.0568 -0.02067,0.1068 -0.02067,0.0499 -0.05857,0.0879 -0.03617,0.0362 -0.08613,0.0586 -0.04995,0.0207 -0.108521,0.0207 -0.05857,0 -0.110243,-0.0207 -0.04995,-0.0224 -0.08785,-0.0586 -0.03617,-0.0379 -0.05684,-0.0879 -0.02067,-0.05 -0.02067,-0.1068 0,-0.0569 0.02067,-0.1068 0.02067,-0.0499 0.05684,-0.0879 0.0379,-0.0379 0.08785,-0.0586 0.05168,-0.0224 0.110243,-0.0224 0.05857,0 0.108521,0.0224 0.04995,0.0207 0.08613,0.0586 0.0379,0.0379 0.05857,0.0879 0.02067,0.0499 0.02067,0.1068 z m -0.465087,0.80615 h -0.494372 v -0.32728 h 0.925008 v 1.42282 h 0.504707 v 0.32729 h -1.490004 v -0.32729 h 0.554661 z"
         style="stroke-width:0.35277778"
         id="path228"
         inkscape:connector-curvature="0" />
      <path
         d="m 90.740039,148.77191 h -0.408244 l 1.202338,-2.8043 h 0.409966 z"
         style="stroke-width:0.35277778"
         id="path230"
         inkscape:connector-curvature="0" />
      <path
         d="m 93.484044,148.40157 -0.01034,-0.2291 q -0.05512,0.0586 -0.11541,0.10852 -0.06029,0.0482 -0.132637,0.0844 -0.07235,0.0362 -0.158474,0.0551 -0.08441,0.0207 -0.186035,0.0207 -0.134359,0 -0.235989,-0.0396 -0.101631,-0.0396 -0.170532,-0.11025 -0.0689,-0.0706 -0.105076,-0.17053 -0.03445,-0.0999 -0.03445,-0.22049 0,-0.12402 0.05168,-0.22909 0.0534,-0.10508 0.160197,-0.18087 0.10852,-0.0758 0.268717,-0.11886 0.161919,-0.0431 0.37896,-0.0431 h 0.229099 v -0.10508 q 0,-0.0672 -0.01895,-0.12058 -0.01895,-0.0551 -0.06201,-0.093 -0.04134,-0.0379 -0.108521,-0.0586 -0.06718,-0.0207 -0.165364,-0.0207 -0.15503,0 -0.306614,0.0362 -0.149862,0.0344 -0.291111,0.0982 v -0.3359 q 0.125746,-0.0499 0.289388,-0.0827 0.165365,-0.0327 0.342787,-0.0327 0.194648,0 0.334175,0.0379 0.139526,0.0362 0.229099,0.11024 0.0913,0.0741 0.134358,0.18604 0.04306,0.11024 0.04306,0.25838 v 1.19545 z m -0.06029,-0.77343 h -0.256659 q -0.106798,0 -0.180868,0.0207 -0.07407,0.0207 -0.120578,0.0568 -0.04651,0.0362 -0.0689,0.0844 -0.02067,0.0465 -0.02067,0.0999 0,0.1068 0.0689,0.16364 0.0689,0.0551 0.187758,0.0551 0.08785,0 0.18259,-0.0637 0.09474,-0.0637 0.208428,-0.18259 z"
         style="stroke-width:0.35277778"
         id="path232"
         inkscape:connector-curvature="0" />
      <path
         d="m 95.304755,148.40157 h -0.484036 l -0.694186,-1.75011 h 0.468533 l 0.363457,0.99218 0.108521,0.3204 0.106798,-0.30662 0.366902,-1.00596 h 0.451308 z"
         style="stroke-width:0.35277778"
         id="path234"
         inkscape:connector-curvature="0" />
      <path
         d="m 97.790378,147.39215 q 0,0.0431 -0.0034,0.11197 -0.0017,0.0689 -0.0069,0.12919 h -1.150662 q 0,0.11541 0.03445,0.20326 0.03617,0.0879 0.09991,0.14814 0.06546,0.0586 0.155029,0.0896 0.0913,0.031 0.201538,0.031 0.127469,0 0.272163,-0.0189 0.146416,-0.0207 0.303168,-0.0655 v 0.33418 q -0.06718,0.0189 -0.146417,0.0344 -0.07924,0.0155 -0.161919,0.0276 -0.08268,0.0121 -0.167087,0.0172 -0.0844,0.007 -0.163642,0.007 -0.199816,0 -0.35829,-0.0568 -0.158475,-0.0568 -0.268718,-0.16709 -0.110243,-0.11196 -0.168809,-0.2756 -0.05857,-0.16365 -0.05857,-0.37897 0,-0.21359 0.05857,-0.38757 0.05857,-0.1757 0.165364,-0.29972 0.106798,-0.12575 0.258382,-0.19293 0.153307,-0.0689 0.341065,-0.0689 0.186035,0 0.329007,0.0586 0.142971,0.0568 0.239434,0.16019 0.09646,0.10336 0.146416,0.24633 0.04995,0.14297 0.04995,0.3135 z m -0.427192,-0.0603 q 0.0017,-0.10335 -0.02584,-0.17914 -0.02756,-0.0775 -0.07579,-0.12747 -0.04651,-0.0499 -0.110243,-0.0741 -0.06201,-0.0241 -0.134359,-0.0241 -0.158474,0 -0.260105,0.1068 -0.10163,0.10508 -0.120578,0.298 z"
         style="stroke-width:0.35277778"
         id="path236"
         inkscape:connector-curvature="0" />
      <path
         d="m 99.332045,147.33186 q 0.0034,-0.0982 -0.01034,-0.16708 -0.01206,-0.0689 -0.04134,-0.11369 -0.02756,-0.0448 -0.0689,-0.0655 -0.04134,-0.0207 -0.09474,-0.0207 -0.09302,0 -0.192925,0.0775 -0.09819,0.0758 -0.217041,0.25149 v 1.1076 h -0.430637 v -1.75011 h 0.380683 l 0.0155,0.25493 q 0.04306,-0.0672 0.09646,-0.12057 0.05512,-0.0534 0.120578,-0.0913 0.06718,-0.0396 0.148139,-0.0603 0.08096,-0.0207 0.177423,-0.0207 0.132636,0 0.234266,0.0465 0.103353,0.0448 0.172255,0.13436 0.07062,0.0896 0.103353,0.22565 0.03445,0.13436 0.02928,0.31178 z"
         style="stroke-width:0.35277778"
         id="path238"
         inkscape:connector-curvature="0" />
      <path
         d="m 101.24233,148.40157 -0.0103,-0.2291 q -0.0551,0.0586 -0.11541,0.10852 -0.0603,0.0482 -0.13263,0.0844 -0.0723,0.0362 -0.15848,0.0551 -0.0844,0.0207 -0.18603,0.0207 -0.13436,0 -0.23599,-0.0396 -0.10163,-0.0396 -0.17053,-0.11025 -0.0689,-0.0706 -0.10508,-0.17053 -0.0345,-0.0999 -0.0345,-0.22049 0,-0.12402 0.0517,-0.22909 0.0534,-0.10508 0.16019,-0.18087 0.10852,-0.0758 0.26872,-0.11886 0.16192,-0.0431 0.37896,-0.0431 h 0.2291 v -0.10508 q 0,-0.0672 -0.019,-0.12058 -0.019,-0.0551 -0.062,-0.093 -0.0413,-0.0379 -0.10852,-0.0586 -0.0672,-0.0207 -0.16536,-0.0207 -0.15503,0 -0.30662,0.0362 -0.14986,0.0344 -0.29111,0.0982 v -0.3359 q 0.12575,-0.0499 0.28939,-0.0827 0.16536,-0.0327 0.34279,-0.0327 0.19464,0 0.33417,0.0379 0.13953,0.0362 0.2291,0.11024 0.0913,0.0741 0.13436,0.18604 0.0431,0.11024 0.0431,0.25838 v 1.19545 z m -0.0603,-0.77343 h -0.25666 q -0.1068,0 -0.18087,0.0207 -0.0741,0.0207 -0.12058,0.0568 -0.0465,0.0362 -0.0689,0.0844 -0.0207,0.0465 -0.0207,0.0999 0,0.1068 0.0689,0.16364 0.0689,0.0551 0.18776,0.0551 0.0879,0 0.18259,-0.0637 0.0947,-0.0637 0.20843,-0.18259 z"
         style="stroke-width:0.35277778"
         id="path240"
         inkscape:connector-curvature="0" />
      <path
         d="m 103.39722,146.95807 q 0.0482,0.0603 0.0672,0.12747 0.0207,0.0655 0.0207,0.13436 0,0.14641 -0.0517,0.25838 -0.05,0.11197 -0.14298,0.18776 -0.0913,0.0758 -0.22048,0.11541 -0.12747,0.0379 -0.2825,0.0379 -0.0913,0 -0.16881,-0.0172 -0.0775,-0.0189 -0.11713,-0.0431 -0.0293,0.0293 -0.05,0.0654 -0.0207,0.0344 -0.0207,0.0792 0,0.0276 0.0138,0.0551 0.0138,0.0276 0.0396,0.0499 0.0276,0.0207 0.0637,0.0345 0.0379,0.0138 0.0844,0.0155 l 0.41514,0.0155 q 0.13952,0.003 0.25149,0.0362 0.11369,0.031 0.19465,0.0896 0.081,0.0586 0.12402,0.14297 0.0448,0.0827 0.0448,0.18948 0,0.1223 -0.0551,0.23082 -0.0551,0.10852 -0.16708,0.18776 -0.11025,0.081 -0.27561,0.12747 -0.16537,0.0465 -0.38413,0.0465 -0.21187,0 -0.36518,-0.0345 -0.15158,-0.0327 -0.24977,-0.093 -0.0965,-0.0603 -0.14297,-0.1447 -0.0465,-0.0827 -0.0465,-0.18259 0,-0.0603 0.0155,-0.11196 0.0155,-0.0517 0.0465,-0.0999 0.031,-0.0465 0.0775,-0.0913 0.0465,-0.0448 0.11024,-0.0896 -0.0844,-0.0482 -0.12919,-0.12402 -0.0431,-0.0758 -0.0431,-0.16192 0,-0.0586 0.0155,-0.10852 0.0155,-0.0517 0.0396,-0.0982 0.0258,-0.0465 0.0586,-0.0896 0.0327,-0.0431 0.0689,-0.0844 -0.0637,-0.0637 -0.1068,-0.15331 -0.0413,-0.0913 -0.0413,-0.22738 0,-0.14641 0.0517,-0.2601 0.0534,-0.11541 0.14642,-0.19293 0.093,-0.0792 0.22049,-0.11885 0.12919,-0.0413 0.28077,-0.0413 0.0775,0 0.14814,0.009 0.0724,0.007 0.13091,0.0258 h 0.60634 v 0.30661 z m -0.99046,1.67604 q 0,0.10163 0.10163,0.14986 0.10335,0.0482 0.28939,0.0482 0.11885,0 0.19981,-0.0224 0.0827,-0.0224 0.13436,-0.0586 0.0517,-0.0362 0.0741,-0.0844 0.0224,-0.0482 0.0224,-0.0999 0,-0.0465 -0.0224,-0.0792 -0.0207,-0.031 -0.0603,-0.0534 -0.0379,-0.0207 -0.0913,-0.0327 -0.0517,-0.0103 -0.11542,-0.0138 l -0.37034,-0.007 q -0.05,0.0345 -0.0827,0.0655 -0.031,0.031 -0.0499,0.0603 -0.0172,0.031 -0.0241,0.062 -0.005,0.031 -0.005,0.0655 z m 0.0706,-1.40388 q 0,0.13953 0.081,0.22221 0.0827,0.081 0.2291,0.081 0.0775,0 0.13436,-0.0258 0.0586,-0.0258 0.0965,-0.0689 0.0379,-0.0431 0.0568,-0.0999 0.0189,-0.0568 0.0189,-0.11885 0,-0.14642 -0.0827,-0.22738 -0.081,-0.0827 -0.22737,-0.0827 -0.0775,0 -0.13609,0.0258 -0.0568,0.0258 -0.0947,0.0706 -0.0379,0.0431 -0.0568,0.10163 -0.019,0.0586 -0.019,0.1223 z"
         style="stroke-width:0.35277778"
         id="path242"
         inkscape:connector-curvature="0" />
      <path
         d="m 105.54866,147.39215 q 0,0.0431 -0.003,0.11197 -0.002,0.0689 -0.007,0.12919 H 104.388 q 0,0.11541 0.0345,0.20326 0.0362,0.0879 0.0999,0.14814 0.0654,0.0586 0.15503,0.0896 0.0913,0.031 0.20153,0.031 0.12747,0 0.27217,-0.0189 0.14641,-0.0207 0.30317,-0.0655 v 0.33418 q -0.0672,0.0189 -0.14642,0.0344 -0.0792,0.0155 -0.16192,0.0276 -0.0827,0.0121 -0.16709,0.0172 -0.0844,0.007 -0.16364,0.007 -0.19981,0 -0.35829,-0.0568 -0.15847,-0.0568 -0.26872,-0.16709 -0.11024,-0.11196 -0.16881,-0.2756 -0.0586,-0.16365 -0.0586,-0.37897 0,-0.21359 0.0586,-0.38757 0.0586,-0.1757 0.16537,-0.29972 0.1068,-0.12575 0.25838,-0.19293 0.15331,-0.0689 0.34106,-0.0689 0.18604,0 0.32901,0.0586 0.14297,0.0568 0.23944,0.16019 0.0965,0.10336 0.14641,0.24633 0.05,0.14297 0.05,0.3135 z m -0.4272,-0.0603 q 0.002,-0.10335 -0.0258,-0.17914 -0.0276,-0.0775 -0.0758,-0.12747 -0.0465,-0.0499 -0.11024,-0.0741 -0.062,-0.0241 -0.13436,-0.0241 -0.15847,0 -0.2601,0.1068 -0.10163,0.10508 -0.12058,0.298 z"
         style="stroke-width:0.35277778"
         id="path244"
         inkscape:connector-curvature="0" />
      <path
         d="m 107.40728,147.88652 q 0,0.14987 -0.0672,0.25666 -0.0655,0.10508 -0.1757,0.17226 -0.10852,0.0654 -0.24805,0.0947 -0.1378,0.031 -0.28249,0.031 -0.19293,0 -0.34796,-0.0189 -0.15503,-0.0172 -0.29283,-0.0517 v -0.37896 q 0.16192,0.0672 0.32211,0.0982 0.16192,0.0293 0.30489,0.0293 0.16537,0 0.24633,-0.0517 0.0827,-0.0534 0.0827,-0.1378 0,-0.0396 -0.0172,-0.0724 -0.0172,-0.0327 -0.0655,-0.062 -0.0465,-0.031 -0.13264,-0.062 -0.0861,-0.0327 -0.22565,-0.0724 -0.12919,-0.0362 -0.22738,-0.081 -0.0965,-0.0465 -0.16019,-0.10852 -0.0637,-0.062 -0.0965,-0.14297 -0.031,-0.0827 -0.031,-0.19293 0,-0.10679 0.0482,-0.20154 0.0482,-0.0947 0.14297,-0.16536 0.0965,-0.0724 0.23943,-0.11369 0.14298,-0.0413 0.33418,-0.0413 0.16536,0 0.29283,0.0172 0.12747,0.0172 0.22566,0.0379 v 0.34279 q -0.14987,-0.0482 -0.2825,-0.0672 -0.13092,-0.0207 -0.26011,-0.0207 -0.12919,0 -0.20843,0.0465 -0.0775,0.0465 -0.0775,0.12919 0,0.0396 0.0155,0.0706 0.0155,0.031 0.0603,0.0603 0.0465,0.0293 0.12747,0.062 0.0827,0.031 0.21704,0.0689 0.15159,0.0431 0.25494,0.093 0.10335,0.0482 0.16536,0.11025 0.0637,0.062 0.0913,0.14125 0.0276,0.0792 0.0276,0.18086 z"
         style="stroke-width:0.35277778"
         id="path246"
         inkscape:connector-curvature="0" />
    </g>
    <g
       aria-label="Currentnumberofaverages"
       style="font-variant:normal;font-weight:bold;font-size:3.52777767px;font-family:'Open Sans';-inkscape-font-specification:OpenSans-Bold;writing-mode:lr-tb;fill:#272727;fill-opacity:1;fill-rule:nonzero;stroke:none;stroke-width:0.35277778"
       id="text4288">
      <path
         d="m 112.79224,146.29744 q -0.30145,0 -0.46681,0.22738 -0.16537,0.22565 -0.16537,0.63045 0,0.84233 0.63218,0.84233 0.26527,0 0.64251,-0.13264 v 0.44786 q -0.31006,0.12919 -0.69247,0.12919 -0.54949,0 -0.8406,-0.33245 -0.29111,-0.33417 -0.29111,-0.95774 0,-0.39274 0.14297,-0.68729 0.14297,-0.29628 0.40997,-0.45303 0.26871,-0.15848 0.62873,-0.15848 0.3669,0 0.73725,0.17743 l -0.17226,0.43408 q -0.14125,-0.0672 -0.28422,-0.11713 -0.14297,-0.05 -0.28077,-0.05 z"
         style="stroke-width:0.35277778"
         id="path175"
         inkscape:connector-curvature="0" />
      <path
         d="m 115.29335,148.40756 -0.0706,-0.24632 h -0.0276 q -0.0844,0.13436 -0.23944,0.20843 -0.15503,0.0723 -0.35312,0.0723 -0.33934,0 -0.51159,-0.18086 -0.17226,-0.18259 -0.17226,-0.52366 v -1.25574 h 0.52538 v 1.12483 q 0,0.20843 0.0741,0.3135 0.0741,0.10335 0.23599,0.10335 0.22048,0 0.31867,-0.14641 0.0982,-0.14814 0.0982,-0.48921 v -0.90606 h 0.52538 v 1.92581 z"
         style="stroke-width:0.35277778"
         id="path177"
         inkscape:connector-curvature="0" />
      <path
         d="m 117.32242,146.44558 q 0.1068,0 0.17743,0.0155 l -0.0396,0.49265 q -0.0637,-0.0172 -0.15503,-0.0172 -0.25149,0 -0.39274,0.12919 -0.13953,0.12919 -0.13953,0.36173 v 0.98013 h -0.52538 v -1.92581 h 0.39791 l 0.0775,0.32384 h 0.0258 q 0.0896,-0.16192 0.24115,-0.2601 0.15331,-0.0999 0.33245,-0.0999 z"
         style="stroke-width:0.35277778"
         id="path179"
         inkscape:connector-curvature="0" />
      <path
         d="m 118.92439,146.44558 q 0.1068,0 0.17742,0.0155 l -0.0396,0.49265 q -0.0637,-0.0172 -0.15502,-0.0172 -0.2515,0 -0.39275,0.12919 -0.13952,0.12919 -0.13952,0.36173 v 0.98013 h -0.52538 v -1.92581 h 0.39791 l 0.0775,0.32384 h 0.0258 q 0.0896,-0.16192 0.24116,-0.2601 0.15331,-0.0999 0.33245,-0.0999 z"
         style="stroke-width:0.35277778"
         id="path181"
         inkscape:connector-curvature="0" />
      <path
         d="m 120.17847,146.81937 q -0.16709,0 -0.26183,0.1068 -0.0947,0.10508 -0.10852,0.29972 h 0.73725 q -0.003,-0.19464 -0.10163,-0.29972 -0.0982,-0.1068 -0.26527,-0.1068 z m 0.0741,1.62264 q -0.46509,0 -0.72691,-0.25666 -0.26183,-0.25666 -0.26183,-0.72691 0,-0.48404 0.24115,-0.74759 0.24288,-0.26527 0.67008,-0.26527 0.40824,0 0.63562,0.23254 0.22737,0.23255 0.22737,0.64251 v 0.25494 h -1.24195 q 0.009,0.22393 0.13263,0.34968 0.12403,0.12574 0.34796,0.12574 0.17397,0 0.329,-0.0362 0.15503,-0.0362 0.32384,-0.11541 v 0.40652 q -0.1378,0.0689 -0.29455,0.10163 -0.15676,0.0345 -0.38241,0.0345 z"
         style="stroke-width:0.35277778"
         id="path183"
         inkscape:connector-curvature="0" />
      <path
         d="m 123.24281,148.40756 h -0.52538 v -1.12482 q 0,-0.20843 -0.0741,-0.31178 -0.0741,-0.10508 -0.23599,-0.10508 -0.22049,0 -0.31867,0.14814 -0.0982,0.14642 -0.0982,0.48748 v 0.90606 h -0.52537 v -1.92581 h 0.40135 l 0.0706,0.24633 h 0.0293 q 0.0879,-0.13953 0.24116,-0.21015 0.15502,-0.0724 0.35139,-0.0724 0.3359,0 0.50988,0.18259 0.17398,0.18087 0.17398,0.52365 z"
         style="stroke-width:0.35277778"
         id="path185"
         inkscape:connector-curvature="0" />
      <path
         d="m 124.59491,148.02343 q 0.1378,0 0.33073,-0.0603 v 0.39102 q -0.19637,0.0879 -0.48232,0.0879 -0.31522,0 -0.45992,-0.15847 -0.14297,-0.1602 -0.14297,-0.47887 v -0.92845 h -0.25149 v -0.22221 l 0.28939,-0.1757 0.15158,-0.40652 h 0.3359 v 0.40996 h 0.53916 v 0.39447 h -0.53916 v 0.92845 q 0,0.11197 0.062,0.16537 0.0637,0.0534 0.16709,0.0534 z"
         style="stroke-width:0.35277778"
         id="path187"
         inkscape:connector-curvature="0" />
      <path
         d="m 128.00884,148.40756 h -0.52538 v -1.12482 q 0,-0.20843 -0.0741,-0.31178 -0.0741,-0.10508 -0.23599,-0.10508 -0.22049,0 -0.31867,0.14814 -0.0982,0.14642 -0.0982,0.48748 v 0.90606 h -0.52537 v -1.92581 h 0.40135 l 0.0706,0.24633 h 0.0293 q 0.0879,-0.13953 0.24115,-0.21015 0.15503,-0.0724 0.3514,-0.0724 0.3359,0 0.50988,0.18259 0.17398,0.18087 0.17398,0.52365 z"
         style="stroke-width:0.35277778"
         id="path189"
         inkscape:connector-curvature="0" />
      <path
         d="m 129.91388,148.40756 -0.0706,-0.24632 h -0.0276 q -0.0844,0.13436 -0.23944,0.20843 -0.15503,0.0723 -0.35312,0.0723 -0.33934,0 -0.5116,-0.18086 -0.17225,-0.18259 -0.17225,-0.52366 v -1.25574 h 0.52538 v 1.12483 q 0,0.20843 0.0741,0.3135 0.0741,0.10335 0.23599,0.10335 0.22048,0 0.31867,-0.14641 0.0982,-0.14814 0.0982,-0.48921 v -0.90606 h 0.52538 v 1.92581 z"
         style="stroke-width:0.35277778"
         id="path191"
         inkscape:connector-curvature="0" />
      <path
         d="m 132.59235,148.40756 h -0.52538 v -1.12482 q 0,-0.20843 -0.0706,-0.31178 -0.0689,-0.10508 -0.21876,-0.10508 -0.20154,0 -0.29283,0.14814 -0.0913,0.14814 -0.0913,0.48748 v 0.90606 h -0.52537 v -1.92581 h 0.40135 l 0.0706,0.24633 h 0.0293 q 0.0775,-0.13264 0.22393,-0.20671 0.14642,-0.0758 0.3359,-0.0758 0.43235,0 0.58566,0.2825 h 0.0465 q 0.0775,-0.13436 0.22738,-0.20843 0.15158,-0.0741 0.34106,-0.0741 0.32729,0 0.49437,0.16881 0.16881,0.16709 0.16881,0.53743 v 1.25574 h -0.5271 v -1.12482 q 0,-0.20843 -0.0706,-0.31178 -0.0689,-0.10508 -0.21877,-0.10508 -0.19292,0 -0.28938,0.13781 -0.0947,0.1378 -0.0947,0.43752 z"
         style="stroke-width:0.35277778"
         id="path193"
         inkscape:connector-curvature="0" />
      <path
         d="m 135.40343,146.44558 q 0.34106,0 0.53399,0.267 0.19292,0.26527 0.19292,0.72863 0,0.47715 -0.19981,0.73898 -0.19809,0.26182 -0.54088,0.26182 -0.33934,0 -0.53227,-0.24632 h -0.0362 l -0.0879,0.21187 H 134.332 v -2.68028 h 0.52538 v 0.62356 q 0,0.11886 -0.0207,0.38068 h 0.0207 q 0.18431,-0.28594 0.54605,-0.28594 z m -0.16881,0.4203 q -0.19465,0 -0.28422,0.12058 -0.0896,0.11886 -0.093,0.39446 v 0.0568 q 0,0.31006 0.0913,0.44442 0.093,0.13435 0.29283,0.13435 0.16192,0 0.25666,-0.14814 0.0965,-0.14986 0.0965,-0.43408 0,-0.28422 -0.0965,-0.42547 -0.0965,-0.14297 -0.26355,-0.14297 z"
         style="stroke-width:0.35277778"
         id="path195"
         inkscape:connector-curvature="0" />
      <path
         d="m 137.36192,146.81937 q -0.16709,0 -0.26183,0.1068 -0.0947,0.10508 -0.10852,0.29972 h 0.73725 q -0.003,-0.19464 -0.10163,-0.29972 -0.0982,-0.1068 -0.26527,-0.1068 z m 0.0741,1.62264 q -0.46509,0 -0.72692,-0.25666 -0.26182,-0.25666 -0.26182,-0.72691 0,-0.48404 0.24115,-0.74759 0.24288,-0.26527 0.67007,-0.26527 0.40825,0 0.63562,0.23254 0.22738,0.23255 0.22738,0.64251 v 0.25494 h -1.24196 q 0.009,0.22393 0.13264,0.34968 0.12402,0.12574 0.34796,0.12574 0.17397,0 0.329,-0.0362 0.15503,-0.0362 0.32384,-0.11541 v 0.40652 q -0.1378,0.0689 -0.29456,0.10163 -0.15675,0.0345 -0.3824,0.0345 z"
         style="stroke-width:0.35277778"
         id="path197"
         inkscape:connector-curvature="0" />
      <path
         d="m 139.72346,146.44558 q 0.1068,0 0.17743,0.0155 l -0.0396,0.49265 q -0.0637,-0.0172 -0.15503,-0.0172 -0.25149,0 -0.39274,0.12919 -0.13953,0.12919 -0.13953,0.36173 v 0.98013 h -0.52538 v -1.92581 h 0.39791 l 0.0775,0.32384 h 0.0258 q 0.0896,-0.16192 0.24116,-0.2601 0.15331,-0.0999 0.33245,-0.0999 z"
         style="stroke-width:0.35277778"
         id="path199"
         inkscape:connector-curvature="0" />
      <path
         d="m 141.58565,147.44121 q 0,0.28595 0.093,0.43236 0.0947,0.14642 0.30661,0.14642 0.21015,0 0.30145,-0.14469 0.093,-0.14642 0.093,-0.43409 0,-0.28594 -0.093,-0.42891 -0.093,-0.14297 -0.30489,-0.14297 -0.21015,0 -0.30317,0.14297 -0.093,0.14125 -0.093,0.42891 z m 1.33153,0 q 0,0.47026 -0.24805,0.73553 -0.24804,0.26527 -0.69074,0.26527 -0.27733,0 -0.4892,-0.12058 -0.21188,-0.1223 -0.32556,-0.34967 -0.11369,-0.22738 -0.11369,-0.53055 0,-0.47198 0.24632,-0.7338 0.24633,-0.26183 0.69247,-0.26183 0.27733,0 0.4892,0.12058 0.21187,0.12058 0.32556,0.34623 0.11369,0.22565 0.11369,0.52882 z"
         style="stroke-width:0.35277778"
         id="path201"
         inkscape:connector-curvature="0" />
      <path
         d="m 144.41566,146.87622 h -0.45475 v 1.53134 h -0.52538 v -1.53134 h -0.28939 V 146.623 l 0.28939,-0.14125 v -0.14124 q 0,-0.32901 0.16192,-0.4806 0.16192,-0.15158 0.51848,-0.15158 0.27217,0 0.48404,0.081 l -0.13436,0.38585 q -0.15847,-0.0499 -0.29283,-0.0499 -0.11197,0 -0.16192,0.0672 -0.0499,0.0654 -0.0499,0.16881 v 0.12057 h 0.45475 z"
         style="stroke-width:0.35277778"
         id="path203"
         inkscape:connector-curvature="0" />
      <path
         d="m 146.8566,148.40756 -0.10163,-0.26182 h -0.0138 q -0.13263,0.16708 -0.27388,0.23254 -0.13953,0.0637 -0.36518,0.0637 -0.27733,0 -0.43753,-0.15847 -0.15847,-0.15848 -0.15847,-0.45131 0,-0.30661 0.21359,-0.45131 0.21532,-0.14641 0.64768,-0.16192 l 0.33417,-0.0103 v -0.0844 q 0,-0.29283 -0.29972,-0.29283 -0.23082,0 -0.5426,0.13953 l -0.17398,-0.35485 q 0.33245,-0.17397 0.73725,-0.17397 0.38757,0 0.59428,0.16881 0.20671,0.1688 0.20671,0.51331 v 1.2833 z m -0.15503,-0.89228 -0.20326,0.007 q -0.2291,0.007 -0.34106,0.0827 -0.11197,0.0758 -0.11197,0.23082 0,0.22221 0.25494,0.22221 0.18259,0 0.29111,-0.10508 0.11024,-0.10508 0.11024,-0.27905 z"
         style="stroke-width:0.35277778"
         id="path205"
         inkscape:connector-curvature="0" />
      <path
         d="m 148.22291,148.40756 -0.7338,-1.92581 h 0.54949 l 0.37207,1.09727 q 0.062,0.20843 0.0775,0.39446 h 0.0103 q 0.009,-0.16536 0.0775,-0.39446 l 0.37035,-1.09727 h 0.54949 l -0.7338,1.92581 z"
         style="stroke-width:0.35277778"
         id="path207"
         inkscape:connector-curvature="0" />
      <path
         d="m 150.56886,146.81937 q -0.16709,0 -0.26183,0.1068 -0.0947,0.10508 -0.10852,0.29972 h 0.73725 q -0.003,-0.19464 -0.10163,-0.29972 -0.0982,-0.1068 -0.26527,-0.1068 z m 0.0741,1.62264 q -0.46509,0 -0.72692,-0.25666 -0.26182,-0.25666 -0.26182,-0.72691 0,-0.48404 0.24115,-0.74759 0.24288,-0.26527 0.67007,-0.26527 0.40825,0 0.63562,0.23254 0.22738,0.23255 0.22738,0.64251 v 0.25494 h -1.24196 q 0.009,0.22393 0.13264,0.34968 0.12402,0.12574 0.34795,0.12574 0.17398,0 0.32901,-0.0362 0.15503,-0.0362 0.32384,-0.11541 v 0.40652 q -0.1378,0.0689 -0.29456,0.10163 -0.15675,0.0345 -0.3824,0.0345 z"
         style="stroke-width:0.35277778"
         id="path209"
         inkscape:connector-curvature="0" />
      <path
         d="m 152.9304,146.44558 q 0.1068,0 0.17743,0.0155 l -0.0396,0.49265 q -0.0637,-0.0172 -0.15503,-0.0172 -0.25149,0 -0.39274,0.12919 -0.13953,0.12919 -0.13953,0.36173 v 0.98013 h -0.52538 v -1.92581 h 0.39791 l 0.0775,0.32384 h 0.0258 q 0.0896,-0.16192 0.24116,-0.2601 0.15331,-0.0999 0.33245,-0.0999 z"
         style="stroke-width:0.35277778"
         id="path211"
         inkscape:connector-curvature="0" />
      <path
         d="m 154.60994,148.40756 -0.10163,-0.26182 h -0.0138 q -0.13263,0.16708 -0.27388,0.23254 -0.13953,0.0637 -0.36518,0.0637 -0.27733,0 -0.43753,-0.15847 -0.15847,-0.15848 -0.15847,-0.45131 0,-0.30661 0.21359,-0.45131 0.21532,-0.14641 0.64768,-0.16192 l 0.33418,-0.0103 v -0.0844 q 0,-0.29283 -0.29973,-0.29283 -0.23082,0 -0.5426,0.13953 l -0.17398,-0.35485 q 0.33245,-0.17397 0.73725,-0.17397 0.38758,0 0.59428,0.16881 0.20671,0.1688 0.20671,0.51331 v 1.2833 z m -0.15502,-0.89228 -0.20327,0.007 q -0.22909,0.007 -0.34106,0.0827 -0.11197,0.0758 -0.11197,0.23082 0,0.22221 0.25494,0.22221 0.18259,0 0.29111,-0.10508 0.11025,-0.10508 0.11025,-0.27905 z"
         style="stroke-width:0.35277778"
         id="path213"
         inkscape:connector-curvature="0" />
      <path
         d="m 157.19411,146.48175 v 0.267 l -0.30145,0.0775 q 0.0827,0.12919 0.0827,0.28939 0,0.31006 -0.21705,0.48404 -0.21531,0.17225 -0.59944,0.17225 l -0.0947,-0.005 -0.0775,-0.009 q -0.081,0.062 -0.081,0.13781 0,0.11368 0.28939,0.11368 h 0.32729 q 0.31694,0 0.48231,0.13609 0.16709,0.13608 0.16709,0.39963 0,0.33762 -0.2825,0.52365 -0.28078,0.18604 -0.80788,0.18604 -0.40307,0 -0.61667,-0.14125 -0.21187,-0.13953 -0.21187,-0.39274 0,-0.17398 0.10852,-0.29111 0.10852,-0.11714 0.31867,-0.16709 -0.081,-0.0344 -0.14125,-0.11197 -0.0603,-0.0792 -0.0603,-0.16708 0,-0.11025 0.0637,-0.18259 0.0637,-0.0741 0.18431,-0.1447 -0.15159,-0.0655 -0.24116,-0.21015 -0.0879,-0.14469 -0.0879,-0.34106 0,-0.31523 0.20498,-0.48748 0.20499,-0.17226 0.58567,-0.17226 0.081,0 0.1912,0.0155 0.11197,0.0138 0.14298,0.0207 z m -1.48656,2.19797 q 0,0.10853 0.10335,0.17054 0.10508,0.062 0.29284,0.062 0.28249,0 0.44269,-0.0775 0.1602,-0.0775 0.1602,-0.21187 0,-0.10852 -0.0947,-0.14986 -0.0947,-0.0413 -0.29284,-0.0413 h -0.27216 q -0.14469,0 -0.24288,0.0672 -0.0965,0.0689 -0.0965,0.18086 z m 0.1912,-1.56751 q 0,0.15675 0.0706,0.24804 0.0723,0.0913 0.21876,0.0913 0.14814,0 0.21704,-0.0913 0.0689,-0.0913 0.0689,-0.24804 0,-0.34796 -0.28594,-0.34796 -0.28939,0 -0.28939,0.34796 z"
         style="stroke-width:0.35277778"
         id="path215"
         inkscape:connector-curvature="0" />
      <path
         d="m 158.30845,146.81937 q -0.16708,0 -0.26182,0.1068 -0.0947,0.10508 -0.10852,0.29972 h 0.73725 q -0.003,-0.19464 -0.10163,-0.29972 -0.0982,-0.1068 -0.26528,-0.1068 z m 0.0741,1.62264 q -0.46509,0 -0.72691,-0.25666 -0.26183,-0.25666 -0.26183,-0.72691 0,-0.48404 0.24116,-0.74759 0.24288,-0.26527 0.67007,-0.26527 0.40824,0 0.63562,0.23254 0.22737,0.23255 0.22737,0.64251 v 0.25494 h -1.24195 q 0.009,0.22393 0.13263,0.34968 0.12403,0.12574 0.34796,0.12574 0.17398,0 0.329,-0.0362 0.15503,-0.0362 0.32384,-0.11541 v 0.40652 q -0.1378,0.0689 -0.29455,0.10163 -0.15675,0.0345 -0.38241,0.0345 z"
         style="stroke-width:0.35277778"
         id="path217"
         inkscape:connector-curvature="0" />
      <path
         d="m 160.93871,147.83568 q 0,0.29627 -0.2067,0.4513 -0.20499,0.15503 -0.61495,0.15503 -0.21015,0 -0.35829,-0.0293 -0.14814,-0.0276 -0.27733,-0.0827 v -0.43408 q 0.14642,0.0689 0.32901,0.11541 0.18431,0.0465 0.32383,0.0465 0.28595,0 0.28595,-0.16537 0,-0.062 -0.0379,-0.0999 -0.0379,-0.0396 -0.13091,-0.0879 -0.093,-0.0499 -0.24805,-0.11541 -0.22221,-0.093 -0.32728,-0.17225 -0.10336,-0.0792 -0.15159,-0.18087 -0.0465,-0.10335 -0.0465,-0.25321 0,-0.25666 0.1981,-0.39619 0.19981,-0.14125 0.56499,-0.14125 0.34796,0 0.67696,0.15158 l -0.15847,0.37897 q -0.1447,-0.062 -0.27044,-0.10164 -0.12575,-0.0396 -0.25666,-0.0396 -0.23254,0 -0.23254,0.12574 0,0.0706 0.0741,0.1223 0.0758,0.0517 0.32901,0.15331 0.22566,0.0913 0.33073,0.17053 0.10508,0.0792 0.15503,0.18259 0.0499,0.10335 0.0499,0.24633 z"
         style="stroke-width:0.35277778"
         id="path219"
         inkscape:connector-curvature="0" />
    </g>
    <path
       d="m 165.84661,158.18046 c 0,-0.56074 -0.45544,-1.016 -1.016,-1.016 H 58.931307 c -0.560741,0 -1.016,0.45526 -1.016,1.016 v 7.32278 c 0,0.56074 0.455259,1.016 1.016,1.016 H 164.83061 c 0.56056,0 1.016,-0.45526 1.016,-1.016 z"
       style="fill:#99e999;fill-opacity:1;fill-rule:evenodd;stroke:#009314;stroke-width:0.16933332;stroke-linecap:butt;stroke-linejoin:miter;stroke-miterlimit:10;stroke-dasharray:none;stroke-opacity:1"
       id="path4290"
       inkscape:connector-curvature="0" />
    <path
       d="m 78.470574,158.18046 c 0,-0.56074 -0.455225,-1.016 -1.016,-1.016 H 58.931307 c -0.560741,0 -1.016,0.45526 -1.016,1.016 v 7.32278 c 0,0.56074 0.455259,1.016 1.016,1.016 h 18.523267 c 0.560775,0 1.016,-0.45526 1.016,-1.016 z"
       style="fill:#41d741;fill-opacity:1;fill-rule:evenodd;stroke:#009314;stroke-width:0.16933332;stroke-linecap:butt;stroke-linejoin:miter;stroke-miterlimit:10;stroke-dasharray:none;stroke-opacity:1"
       id="path4292"
       inkscape:connector-curvature="0" />
    <g
       aria-label="POST"
       style="font-variant:normal;font-weight:800;font-size:3.52777767px;font-family:'Open Sans';-inkscape-font-specification:OpenSans-ExtraBold;writing-mode:lr-tb;fill:#272727;fill-opacity:1;fill-rule:nonzero;stroke:none;stroke-width:0.35277778"
       id="text4298">
      <path
         d="m 65.620309,161.3845 q 0,0.42203 -0.24977,0.65285 -0.248047,0.2291 -0.706244,0.2291 h -0.191203 v 0.83543 h -0.680406 v -2.51836 h 0.871609 q 0.477145,0 0.71658,0.20843 0.239434,0.20842 0.239434,0.59255 z m -1.147217,0.32729 h 0.124023 q 0.153307,0 0.24288,-0.0861 0.0913,-0.0861 0.0913,-0.23771 0,-0.25494 -0.282498,-0.25494 h -0.1757 z"
         style="stroke-width:0.35277778"
         id="path166"
         inkscape:connector-curvature="0" />
      <path
         d="m 68.377982,161.83926 q 0,0.63562 -0.311781,0.96634 -0.311781,0.33073 -0.91295,0.33073 -0.592557,0 -0.909505,-0.33245 -0.315227,-0.33245 -0.315227,-0.96807 0,-0.62873 0.313504,-0.95946 0.315226,-0.33245 0.914673,-0.33245 0.601169,0 0.911228,0.32901 0.310058,0.329 0.310058,0.96635 z m -1.732883,0 q 0,0.73036 0.508152,0.73036 0.258382,0 0.382405,-0.17743 0.125746,-0.17742 0.125746,-0.55293 0,-0.37724 -0.127468,-0.55639 -0.125746,-0.18086 -0.377238,-0.18086 -0.511597,0 -0.511597,0.73725 z"
         style="stroke-width:0.35277778"
         id="path168"
         inkscape:connector-curvature="0" />
      <path
         d="m 70.479579,162.33707 q 0,0.23427 -0.118855,0.41686 -0.118856,0.18087 -0.342787,0.2825 -0.223932,0.0999 -0.525377,0.0999 -0.251492,0 -0.422025,-0.0344 -0.170532,-0.0362 -0.354844,-0.12402 v -0.60634 q 0.194647,0.0999 0.404798,0.15675 0.210151,0.0551 0.385851,0.0551 0.151584,0 0.222209,-0.0517 0.07062,-0.0534 0.07062,-0.13608 0,-0.0517 -0.02928,-0.0896 -0.02756,-0.0396 -0.0913,-0.0792 -0.06201,-0.0396 -0.334174,-0.16192 -0.246325,-0.11197 -0.370348,-0.21704 -0.122301,-0.10508 -0.18259,-0.24116 -0.05857,-0.13608 -0.05857,-0.32211 0,-0.34796 0.253215,-0.54261 0.253214,-0.19465 0.695909,-0.19465 0.391018,0 0.797539,0.18087 l -0.208428,0.52538 q -0.353122,-0.16192 -0.609782,-0.16192 -0.132636,0 -0.192925,0.0465 -0.06029,0.0465 -0.06029,0.11541 0,0.0741 0.07579,0.13264 0.07752,0.0586 0.416856,0.21359 0.325562,0.14642 0.451308,0.31523 0.127468,0.16708 0.127468,0.42202 z"
         style="stroke-width:0.35277778"
         id="path170"
         inkscape:connector-curvature="0" />
      <path
         d="m 71.979748,163.10188 h -0.680406 v -1.96198 h -0.61495 v -0.55638 h 1.908583 v 0.55638 h -0.613227 z"
         style="stroke-width:0.35277778"
         id="path172"
         inkscape:connector-curvature="0" />
    </g>
    <g
       aria-label="/api/averages"
       style="font-variant:normal;font-weight:bold;font-size:3.52777767px;font-family:Consolas;-inkscape-font-specification:Consolas-Bold;writing-mode:lr-tb;fill:#272727;fill-opacity:1;fill-rule:nonzero;stroke:none;stroke-width:0.35277778"
       id="text4304">
      <path
         d="m 82.981753,163.29225 h -0.408244 l 1.202339,-2.8043 h 0.409966 z"
         style="stroke-width:0.35277778"
         id="path139"
         inkscape:connector-curvature="0" />
      <path
         d="m 85.72575,162.92191 -0.01034,-0.2291 q -0.05512,0.0586 -0.115411,0.10852 -0.06029,0.0482 -0.132636,0.0844 -0.07235,0.0362 -0.158474,0.0551 -0.0844,0.0207 -0.186035,0.0207 -0.134359,0 -0.235989,-0.0396 -0.101631,-0.0396 -0.170533,-0.11025 -0.0689,-0.0706 -0.105075,-0.17053 -0.03445,-0.0999 -0.03445,-0.22049 0,-0.12402 0.05168,-0.22909 0.0534,-0.10508 0.160197,-0.18087 0.108521,-0.0758 0.268718,-0.11886 0.161919,-0.0431 0.37896,-0.0431 h 0.229099 v -0.10508 q 0,-0.0672 -0.01895,-0.12058 -0.01895,-0.0551 -0.06201,-0.093 -0.04134,-0.0379 -0.10852,-0.0586 -0.06718,-0.0207 -0.165365,-0.0207 -0.155029,0 -0.306613,0.0362 -0.149862,0.0344 -0.291111,0.0982 v -0.3359 q 0.125746,-0.0499 0.289388,-0.0827 0.165365,-0.0327 0.342787,-0.0327 0.194648,0 0.334175,0.0379 0.139526,0.0362 0.229098,0.11024 0.0913,0.0741 0.134359,0.18604 0.04306,0.11024 0.04306,0.25838 v 1.19545 z m -0.06029,-0.77343 h -0.256659 q -0.106798,0 -0.180868,0.0207 -0.07407,0.0207 -0.120578,0.0568 -0.04651,0.0362 -0.0689,0.0844 -0.02067,0.0465 -0.02067,0.0999 0,0.1068 0.0689,0.16364 0.0689,0.0551 0.187758,0.0551 0.08785,0 0.18259,-0.0637 0.09474,-0.0637 0.208428,-0.18259 z"
         style="stroke-width:0.35277778"
         id="path141"
         inkscape:connector-curvature="0" />
      <path
         d="m 88.142471,162.01585 q 0,0.24115 -0.0689,0.41685 -0.06718,0.1757 -0.18948,0.29284 -0.120578,0.11541 -0.285943,0.17225 -0.165364,0.0551 -0.360012,0.0551 -0.06546,0 -0.130914,-0.009 -0.06546,-0.009 -0.118856,-0.0224 v 0.68385 h -0.420301 v -2.43396 h 0.363457 l 0.01034,0.25838 q 0.0534,-0.0672 0.110243,-0.1223 0.05857,-0.0551 0.125746,-0.093 0.06718,-0.0396 0.144694,-0.0603 0.07751,-0.0207 0.173977,-0.0207 0.155029,0 0.275608,0.062 0.120578,0.062 0.201538,0.17743 0.08268,0.11368 0.125746,0.27733 0.04306,0.16191 0.04306,0.36518 z m -0.440972,0.0172 q 0,-0.14469 -0.02067,-0.24632 -0.02067,-0.10163 -0.06029,-0.16709 -0.0379,-0.0655 -0.09474,-0.0947 -0.05512,-0.031 -0.127468,-0.031 -0.106798,0 -0.204984,0.0861 -0.09646,0.0861 -0.204983,0.23427 v 0.76481 q 0.04995,0.019 0.122301,0.031 0.07407,0.0121 0.149862,0.0121 0.09991,0 0.180867,-0.0413 0.08268,-0.0413 0.139527,-0.11713 0.05857,-0.0758 0.08957,-0.18431 0.03101,-0.11025 0.03101,-0.24633 z"
         style="stroke-width:0.35277778"
         id="path143"
         inkscape:connector-curvature="0" />
      <path
         d="m 89.537721,160.69293 q 0,0.0568 -0.02067,0.1068 -0.02067,0.0499 -0.05857,0.0879 -0.03617,0.0362 -0.08613,0.0586 -0.04995,0.0207 -0.108521,0.0207 -0.05857,0 -0.110243,-0.0207 -0.04995,-0.0224 -0.08785,-0.0586 -0.03617,-0.0379 -0.05684,-0.0879 -0.02067,-0.05 -0.02067,-0.1068 0,-0.0568 0.02067,-0.1068 0.02067,-0.0499 0.05684,-0.0879 0.0379,-0.0379 0.08785,-0.0586 0.05168,-0.0224 0.110243,-0.0224 0.05857,0 0.108521,0.0224 0.04995,0.0207 0.08613,0.0586 0.0379,0.0379 0.05857,0.0879 0.02067,0.0499 0.02067,0.1068 z m -0.465087,0.80615 h -0.494372 v -0.32728 h 0.925008 v 1.42282 h 0.504707 v 0.32729 h -1.490004 v -0.32729 h 0.554661 z"
         style="stroke-width:0.35277778"
         id="path145"
         inkscape:connector-curvature="0" />
      <path
         d="m 90.740039,163.29225 h -0.408244 l 1.202338,-2.8043 h 0.409966 z"
         style="stroke-width:0.35277778"
         id="path147"
         inkscape:connector-curvature="0" />
      <path
         d="m 93.484044,162.92191 -0.01034,-0.2291 q -0.05512,0.0586 -0.11541,0.10852 -0.06029,0.0482 -0.132637,0.0844 -0.07235,0.0362 -0.158474,0.0551 -0.08441,0.0207 -0.186035,0.0207 -0.134359,0 -0.235989,-0.0396 -0.101631,-0.0396 -0.170532,-0.11025 -0.0689,-0.0706 -0.105076,-0.17053 -0.03445,-0.0999 -0.03445,-0.22049 0,-0.12402 0.05168,-0.22909 0.0534,-0.10508 0.160197,-0.18087 0.10852,-0.0758 0.268717,-0.11886 0.161919,-0.0431 0.37896,-0.0431 h 0.229099 v -0.10508 q 0,-0.0672 -0.01895,-0.12058 -0.01895,-0.0551 -0.06201,-0.093 -0.04134,-0.0379 -0.108521,-0.0586 -0.06718,-0.0207 -0.165364,-0.0207 -0.15503,0 -0.306614,0.0362 -0.149862,0.0344 -0.291111,0.0982 v -0.3359 q 0.125746,-0.0499 0.289388,-0.0827 0.165365,-0.0327 0.342787,-0.0327 0.194648,0 0.334175,0.0379 0.139526,0.0362 0.229099,0.11024 0.0913,0.0741 0.134358,0.18604 0.04306,0.11024 0.04306,0.25838 v 1.19545 z m -0.06029,-0.77343 h -0.256659 q -0.106798,0 -0.180868,0.0207 -0.07407,0.0207 -0.120578,0.0568 -0.04651,0.0362 -0.0689,0.0844 -0.02067,0.0465 -0.02067,0.0999 0,0.1068 0.0689,0.16364 0.0689,0.0551 0.187758,0.0551 0.08785,0 0.18259,-0.0637 0.09474,-0.0637 0.208428,-0.18259 z"
         style="stroke-width:0.35277778"
         id="path149"
         inkscape:connector-curvature="0" />
      <path
         d="m 95.304755,162.92191 h -0.484036 l -0.694186,-1.75011 h 0.468533 l 0.363457,0.99218 0.108521,0.3204 0.106798,-0.30662 0.366902,-1.00596 h 0.451308 z"
         style="stroke-width:0.35277778"
         id="path151"
         inkscape:connector-curvature="0" />
      <path
         d="m 97.790378,161.91249 q 0,0.0431 -0.0034,0.11197 -0.0017,0.0689 -0.0069,0.12919 h -1.150662 q 0,0.11541 0.03445,0.20326 0.03617,0.0879 0.09991,0.14814 0.06546,0.0586 0.155029,0.0896 0.0913,0.031 0.201538,0.031 0.127469,0 0.272163,-0.0189 0.146416,-0.0207 0.303168,-0.0655 v 0.33418 q -0.06718,0.0189 -0.146417,0.0344 -0.07924,0.0155 -0.161919,0.0276 -0.08268,0.0121 -0.167087,0.0172 -0.0844,0.007 -0.163642,0.007 -0.199816,0 -0.35829,-0.0568 -0.158475,-0.0568 -0.268718,-0.16709 -0.110243,-0.11196 -0.168809,-0.2756 -0.05857,-0.16365 -0.05857,-0.37897 0,-0.21359 0.05857,-0.38757 0.05857,-0.1757 0.165364,-0.29972 0.106798,-0.12575 0.258382,-0.19293 0.153307,-0.0689 0.341065,-0.0689 0.186035,0 0.329007,0.0586 0.142971,0.0568 0.239434,0.16019 0.09646,0.10336 0.146416,0.24633 0.04995,0.14297 0.04995,0.3135 z m -0.427192,-0.0603 q 0.0017,-0.10335 -0.02584,-0.17914 -0.02756,-0.0775 -0.07579,-0.12747 -0.04651,-0.0499 -0.110243,-0.0741 -0.06201,-0.0241 -0.134359,-0.0241 -0.158474,0 -0.260105,0.1068 -0.10163,0.10508 -0.120578,0.298 z"
         style="stroke-width:0.35277778"
         id="path153"
         inkscape:connector-curvature="0" />
      <path
         d="m 99.332045,161.8522 q 0.0034,-0.0982 -0.01034,-0.16708 -0.01206,-0.0689 -0.04134,-0.11369 -0.02756,-0.0448 -0.0689,-0.0655 -0.04134,-0.0207 -0.09474,-0.0207 -0.09302,0 -0.192925,0.0775 -0.09819,0.0758 -0.217041,0.25149 v 1.1076 h -0.430637 v -1.75011 h 0.380683 l 0.0155,0.25493 q 0.04306,-0.0672 0.09646,-0.12057 0.05512,-0.0534 0.120578,-0.0913 0.06718,-0.0396 0.148139,-0.0603 0.08096,-0.0207 0.177423,-0.0207 0.132636,0 0.234266,0.0465 0.103353,0.0448 0.172255,0.13436 0.07062,0.0896 0.103353,0.22565 0.03445,0.13436 0.02928,0.31178 z"
         style="stroke-width:0.35277778"
         id="path155"
         inkscape:connector-curvature="0" />
      <path
         d="m 101.24233,162.92191 -0.0103,-0.2291 q -0.0551,0.0586 -0.11541,0.10852 -0.0603,0.0482 -0.13263,0.0844 -0.0723,0.0362 -0.15848,0.0551 -0.0844,0.0207 -0.18603,0.0207 -0.13436,0 -0.23599,-0.0396 -0.10163,-0.0396 -0.17053,-0.11025 -0.0689,-0.0706 -0.10508,-0.17053 -0.0345,-0.0999 -0.0345,-0.22049 0,-0.12402 0.0517,-0.22909 0.0534,-0.10508 0.16019,-0.18087 0.10852,-0.0758 0.26872,-0.11886 0.16192,-0.0431 0.37896,-0.0431 h 0.2291 v -0.10508 q 0,-0.0672 -0.019,-0.12058 -0.019,-0.0551 -0.062,-0.093 -0.0413,-0.0379 -0.10852,-0.0586 -0.0672,-0.0207 -0.16536,-0.0207 -0.15503,0 -0.30662,0.0362 -0.14986,0.0344 -0.29111,0.0982 v -0.3359 q 0.12575,-0.0499 0.28939,-0.0827 0.16536,-0.0327 0.34279,-0.0327 0.19464,0 0.33417,0.0379 0.13953,0.0362 0.2291,0.11024 0.0913,0.0741 0.13436,0.18604 0.0431,0.11024 0.0431,0.25838 v 1.19545 z m -0.0603,-0.77343 h -0.25666 q -0.1068,0 -0.18087,0.0207 -0.0741,0.0207 -0.12058,0.0568 -0.0465,0.0362 -0.0689,0.0844 -0.0207,0.0465 -0.0207,0.0999 0,0.1068 0.0689,0.16364 0.0689,0.0551 0.18776,0.0551 0.0879,0 0.18259,-0.0637 0.0947,-0.0637 0.20843,-0.18259 z"
         style="stroke-width:0.35277778"
         id="path157"
         inkscape:connector-curvature="0" />
      <path
         d="m 103.39722,161.47841 q 0.0482,0.0603 0.0672,0.12747 0.0207,0.0655 0.0207,0.13436 0,0.14641 -0.0517,0.25838 -0.05,0.11197 -0.14298,0.18776 -0.0913,0.0758 -0.22048,0.11541 -0.12747,0.0379 -0.2825,0.0379 -0.0913,0 -0.16881,-0.0172 -0.0775,-0.019 -0.11713,-0.0431 -0.0293,0.0293 -0.05,0.0654 -0.0207,0.0344 -0.0207,0.0792 0,0.0276 0.0138,0.0551 0.0138,0.0276 0.0396,0.0499 0.0276,0.0207 0.0637,0.0345 0.0379,0.0138 0.0844,0.0155 l 0.41514,0.0155 q 0.13952,0.003 0.25149,0.0362 0.11369,0.031 0.19465,0.0896 0.081,0.0586 0.12402,0.14297 0.0448,0.0827 0.0448,0.18948 0,0.1223 -0.0551,0.23082 -0.0551,0.10852 -0.16708,0.18776 -0.11025,0.081 -0.27561,0.12747 -0.16537,0.0465 -0.38413,0.0465 -0.21187,0 -0.36518,-0.0345 -0.15158,-0.0327 -0.24977,-0.093 -0.0965,-0.0603 -0.14297,-0.1447 -0.0465,-0.0827 -0.0465,-0.18259 0,-0.0603 0.0155,-0.11196 0.0155,-0.0517 0.0465,-0.0999 0.031,-0.0465 0.0775,-0.0913 0.0465,-0.0448 0.11024,-0.0896 -0.0844,-0.0482 -0.12919,-0.12402 -0.0431,-0.0758 -0.0431,-0.16192 0,-0.0586 0.0155,-0.10852 0.0155,-0.0517 0.0396,-0.0982 0.0258,-0.0465 0.0586,-0.0896 0.0327,-0.0431 0.0689,-0.0844 -0.0637,-0.0637 -0.1068,-0.15331 -0.0413,-0.0913 -0.0413,-0.22738 0,-0.14641 0.0517,-0.2601 0.0534,-0.11541 0.14642,-0.19293 0.093,-0.0792 0.22049,-0.11885 0.12919,-0.0413 0.28077,-0.0413 0.0775,0 0.14814,0.009 0.0724,0.007 0.13091,0.0258 h 0.60634 v 0.30661 z m -0.99046,1.67604 q 0,0.10163 0.10163,0.14986 0.10335,0.0482 0.28939,0.0482 0.11885,0 0.19981,-0.0224 0.0827,-0.0224 0.13436,-0.0586 0.0517,-0.0362 0.0741,-0.0844 0.0224,-0.0482 0.0224,-0.0999 0,-0.0465 -0.0224,-0.0792 -0.0207,-0.031 -0.0603,-0.0534 -0.0379,-0.0207 -0.0913,-0.0327 -0.0517,-0.0103 -0.11542,-0.0138 l -0.37034,-0.007 q -0.05,0.0345 -0.0827,0.0655 -0.031,0.031 -0.0499,0.0603 -0.0172,0.031 -0.0241,0.062 -0.005,0.031 -0.005,0.0655 z m 0.0706,-1.40388 q 0,0.13953 0.081,0.22221 0.0827,0.081 0.2291,0.081 0.0775,0 0.13436,-0.0258 0.0586,-0.0258 0.0965,-0.0689 0.0379,-0.0431 0.0568,-0.0999 0.0189,-0.0568 0.0189,-0.11885 0,-0.14642 -0.0827,-0.22738 -0.081,-0.0827 -0.22737,-0.0827 -0.0775,0 -0.13609,0.0258 -0.0568,0.0258 -0.0947,0.0706 -0.0379,0.0431 -0.0568,0.10163 -0.019,0.0586 -0.019,0.1223 z"
         style="stroke-width:0.35277778"
         id="path159"
         inkscape:connector-curvature="0" />
      <path
         d="m 105.54866,161.91249 q 0,0.0431 -0.003,0.11197 -0.002,0.0689 -0.007,0.12919 H 104.388 q 0,0.11541 0.0345,0.20326 0.0362,0.0879 0.0999,0.14814 0.0654,0.0586 0.15503,0.0896 0.0913,0.031 0.20153,0.031 0.12747,0 0.27217,-0.0189 0.14641,-0.0207 0.30317,-0.0655 v 0.33418 q -0.0672,0.0189 -0.14642,0.0344 -0.0792,0.0155 -0.16192,0.0276 -0.0827,0.0121 -0.16709,0.0172 -0.0844,0.007 -0.16364,0.007 -0.19981,0 -0.35829,-0.0568 -0.15847,-0.0568 -0.26872,-0.16709 -0.11024,-0.11196 -0.16881,-0.2756 -0.0586,-0.16365 -0.0586,-0.37897 0,-0.21359 0.0586,-0.38757 0.0586,-0.1757 0.16537,-0.29972 0.1068,-0.12575 0.25838,-0.19293 0.15331,-0.0689 0.34106,-0.0689 0.18604,0 0.32901,0.0586 0.14297,0.0568 0.23944,0.16019 0.0965,0.10336 0.14641,0.24633 0.05,0.14297 0.05,0.3135 z m -0.4272,-0.0603 q 0.002,-0.10335 -0.0258,-0.17914 -0.0276,-0.0775 -0.0758,-0.12747 -0.0465,-0.0499 -0.11024,-0.0741 -0.062,-0.0241 -0.13436,-0.0241 -0.15847,0 -0.2601,0.1068 -0.10163,0.10508 -0.12058,0.298 z"
         style="stroke-width:0.35277778"
         id="path161"
         inkscape:connector-curvature="0" />
      <path
         d="m 107.40728,162.40686 q 0,0.14987 -0.0672,0.25666 -0.0655,0.10508 -0.1757,0.17226 -0.10852,0.0654 -0.24805,0.0947 -0.1378,0.031 -0.28249,0.031 -0.19293,0 -0.34796,-0.0189 -0.15503,-0.0172 -0.29283,-0.0517 v -0.37896 q 0.16192,0.0672 0.32211,0.0982 0.16192,0.0293 0.30489,0.0293 0.16537,0 0.24633,-0.0517 0.0827,-0.0534 0.0827,-0.1378 0,-0.0396 -0.0172,-0.0724 -0.0172,-0.0327 -0.0655,-0.062 -0.0465,-0.031 -0.13264,-0.062 -0.0861,-0.0327 -0.22565,-0.0724 -0.12919,-0.0362 -0.22738,-0.081 -0.0965,-0.0465 -0.16019,-0.10852 -0.0637,-0.062 -0.0965,-0.14297 -0.031,-0.0827 -0.031,-0.19293 0,-0.10679 0.0482,-0.20154 0.0482,-0.0947 0.14297,-0.16536 0.0965,-0.0724 0.23943,-0.11369 0.14298,-0.0413 0.33418,-0.0413 0.16536,0 0.29283,0.0172 0.12747,0.0172 0.22566,0.0379 v 0.34279 q -0.14987,-0.0482 -0.2825,-0.0672 -0.13092,-0.0207 -0.26011,-0.0207 -0.12919,0 -0.20843,0.0465 -0.0775,0.0465 -0.0775,0.12919 0,0.0396 0.0155,0.0706 0.0155,0.031 0.0603,0.0603 0.0465,0.0293 0.12747,0.062 0.0827,0.031 0.21704,0.0689 0.15159,0.0431 0.25494,0.093 0.10335,0.0482 0.16536,0.11025 0.0637,0.062 0.0913,0.14125 0.0276,0.0792 0.0276,0.18086 z"
         style="stroke-width:0.35277778"
         id="path163"
         inkscape:connector-curvature="0" />
    </g>
    <g
       aria-label="Currentnumberofaverages"
       style="font-variant:normal;font-weight:bold;font-size:3.52777767px;font-family:'Open Sans';-inkscape-font-specification:OpenSans-Bold;writing-mode:lr-tb;fill:#272727;fill-opacity:1;fill-rule:nonzero;stroke:none;stroke-width:0.35277778"
       id="text4310">
      <path
         d="m 112.79224,160.81778 q -0.30145,0 -0.46681,0.22738 -0.16537,0.22565 -0.16537,0.63045 0,0.84233 0.63218,0.84233 0.26527,0 0.64251,-0.13264 v 0.44786 q -0.31006,0.12919 -0.69247,0.12919 -0.54949,0 -0.8406,-0.33245 -0.29111,-0.33417 -0.29111,-0.95774 0,-0.39274 0.14297,-0.68729 0.14297,-0.29628 0.40997,-0.45303 0.26871,-0.15848 0.62873,-0.15848 0.3669,0 0.73725,0.17743 l -0.17226,0.43408 q -0.14125,-0.0672 -0.28422,-0.11713 -0.14297,-0.05 -0.28077,-0.05 z"
         style="stroke-width:0.35277778"
         id="path92"
         inkscape:connector-curvature="0" />
      <path
         d="m 115.29335,162.9279 -0.0706,-0.24632 h -0.0276 q -0.0844,0.13436 -0.23944,0.20843 -0.15503,0.0723 -0.35312,0.0723 -0.33934,0 -0.51159,-0.18086 -0.17226,-0.18259 -0.17226,-0.52366 v -1.25574 h 0.52538 v 1.12483 q 0,0.20843 0.0741,0.3135 0.0741,0.10335 0.23599,0.10335 0.22048,0 0.31867,-0.14641 0.0982,-0.14814 0.0982,-0.48921 v -0.90606 h 0.52538 v 1.92581 z"
         style="stroke-width:0.35277778"
         id="path94"
         inkscape:connector-curvature="0" />
      <path
         d="m 117.32242,160.96592 q 0.1068,0 0.17743,0.0155 l -0.0396,0.49265 q -0.0637,-0.0172 -0.15503,-0.0172 -0.25149,0 -0.39274,0.12919 -0.13953,0.12919 -0.13953,0.36173 v 0.98013 h -0.52538 v -1.92581 h 0.39791 l 0.0775,0.32384 h 0.0258 q 0.0896,-0.16192 0.24115,-0.2601 0.15331,-0.0999 0.33245,-0.0999 z"
         style="stroke-width:0.35277778"
         id="path96"
         inkscape:connector-curvature="0" />
      <path
         d="m 118.92439,160.96592 q 0.1068,0 0.17742,0.0155 l -0.0396,0.49265 q -0.0637,-0.0172 -0.15502,-0.0172 -0.2515,0 -0.39275,0.12919 -0.13952,0.12919 -0.13952,0.36173 v 0.98013 h -0.52538 v -1.92581 h 0.39791 l 0.0775,0.32384 h 0.0258 q 0.0896,-0.16192 0.24116,-0.2601 0.15331,-0.0999 0.33245,-0.0999 z"
         style="stroke-width:0.35277778"
         id="path98"
         inkscape:connector-curvature="0" />
      <path
         d="m 120.17847,161.33971 q -0.16709,0 -0.26183,0.1068 -0.0947,0.10508 -0.10852,0.29972 h 0.73725 q -0.003,-0.19464 -0.10163,-0.29972 -0.0982,-0.1068 -0.26527,-0.1068 z m 0.0741,1.62264 q -0.46509,0 -0.72691,-0.25666 -0.26183,-0.25666 -0.26183,-0.72691 0,-0.48404 0.24115,-0.74759 0.24288,-0.26527 0.67008,-0.26527 0.40824,0 0.63562,0.23254 0.22737,0.23255 0.22737,0.64251 v 0.25494 h -1.24195 q 0.009,0.22393 0.13263,0.34968 0.12403,0.12574 0.34796,0.12574 0.17397,0 0.329,-0.0362 0.15503,-0.0362 0.32384,-0.11541 v 0.40652 q -0.1378,0.0689 -0.29455,0.10163 -0.15676,0.0344 -0.38241,0.0344 z"
         style="stroke-width:0.35277778"
         id="path100"
         inkscape:connector-curvature="0" />
      <path
         d="m 123.24281,162.9279 h -0.52538 v -1.12482 q 0,-0.20843 -0.0741,-0.31178 -0.0741,-0.10508 -0.23599,-0.10508 -0.22049,0 -0.31867,0.14814 -0.0982,0.14642 -0.0982,0.48748 v 0.90606 h -0.52537 v -1.92581 h 0.40135 l 0.0706,0.24633 h 0.0293 q 0.0879,-0.13953 0.24116,-0.21015 0.15502,-0.0724 0.35139,-0.0724 0.3359,0 0.50988,0.18259 0.17398,0.18087 0.17398,0.52365 z"
         style="stroke-width:0.35277778"
         id="path102"
         inkscape:connector-curvature="0" />
      <path
         d="m 124.59491,162.54377 q 0.1378,0 0.33073,-0.0603 v 0.39102 q -0.19637,0.0878 -0.48232,0.0878 -0.31522,0 -0.45992,-0.15847 -0.14297,-0.1602 -0.14297,-0.47887 v -0.92845 h -0.25149 v -0.22221 l 0.28939,-0.1757 0.15158,-0.40652 h 0.3359 v 0.40996 h 0.53916 v 0.39447 h -0.53916 v 0.92845 q 0,0.11197 0.062,0.16537 0.0637,0.0534 0.16709,0.0534 z"
         style="stroke-width:0.35277778"
         id="path104"
         inkscape:connector-curvature="0" />
      <path
         d="m 128.00884,162.9279 h -0.52538 v -1.12482 q 0,-0.20843 -0.0741,-0.31178 -0.0741,-0.10508 -0.23599,-0.10508 -0.22049,0 -0.31867,0.14814 -0.0982,0.14642 -0.0982,0.48748 v 0.90606 h -0.52537 v -1.92581 h 0.40135 l 0.0706,0.24633 h 0.0293 q 0.0879,-0.13953 0.24115,-0.21015 0.15503,-0.0724 0.3514,-0.0724 0.3359,0 0.50988,0.18259 0.17398,0.18087 0.17398,0.52365 z"
         style="stroke-width:0.35277778"
         id="path106"
         inkscape:connector-curvature="0" />
      <path
         d="m 129.91388,162.9279 -0.0706,-0.24632 h -0.0276 q -0.0844,0.13436 -0.23944,0.20843 -0.15503,0.0723 -0.35312,0.0723 -0.33934,0 -0.5116,-0.18086 -0.17225,-0.18259 -0.17225,-0.52366 v -1.25574 h 0.52538 v 1.12483 q 0,0.20843 0.0741,0.3135 0.0741,0.10335 0.23599,0.10335 0.22048,0 0.31867,-0.14641 0.0982,-0.14814 0.0982,-0.48921 v -0.90606 h 0.52538 v 1.92581 z"
         style="stroke-width:0.35277778"
         id="path108"
         inkscape:connector-curvature="0" />
      <path
         d="m 132.59235,162.9279 h -0.52538 v -1.12482 q 0,-0.20843 -0.0706,-0.31178 -0.0689,-0.10508 -0.21876,-0.10508 -0.20154,0 -0.29283,0.14814 -0.0913,0.14814 -0.0913,0.48748 v 0.90606 h -0.52537 v -1.92581 h 0.40135 l 0.0706,0.24633 h 0.0293 q 0.0775,-0.13264 0.22393,-0.20671 0.14642,-0.0758 0.3359,-0.0758 0.43235,0 0.58566,0.2825 h 0.0465 q 0.0775,-0.13436 0.22738,-0.20843 0.15158,-0.0741 0.34106,-0.0741 0.32729,0 0.49437,0.16881 0.16881,0.16709 0.16881,0.53743 v 1.25574 h -0.5271 v -1.12482 q 0,-0.20843 -0.0706,-0.31178 -0.0689,-0.10508 -0.21877,-0.10508 -0.19292,0 -0.28938,0.13781 -0.0947,0.1378 -0.0947,0.43752 z"
         style="stroke-width:0.35277778"
         id="path110"
         inkscape:connector-curvature="0" />
      <path
         d="m 135.40343,160.96592 q 0.34106,0 0.53399,0.267 0.19292,0.26527 0.19292,0.72863 0,0.47715 -0.19981,0.73898 -0.19809,0.26182 -0.54088,0.26182 -0.33934,0 -0.53227,-0.24632 h -0.0362 l -0.0879,0.21187 H 134.332 v -2.68028 h 0.52538 v 0.62356 q 0,0.11886 -0.0207,0.38068 h 0.0207 q 0.18431,-0.28594 0.54605,-0.28594 z m -0.16881,0.4203 q -0.19465,0 -0.28422,0.12058 -0.0896,0.11886 -0.093,0.39446 v 0.0568 q 0,0.31006 0.0913,0.44442 0.093,0.13435 0.29283,0.13435 0.16192,0 0.25666,-0.14814 0.0965,-0.14986 0.0965,-0.43408 0,-0.28422 -0.0965,-0.42547 -0.0965,-0.14297 -0.26355,-0.14297 z"
         style="stroke-width:0.35277778"
         id="path112"
         inkscape:connector-curvature="0" />
      <path
         d="m 137.36192,161.33971 q -0.16709,0 -0.26183,0.1068 -0.0947,0.10508 -0.10852,0.29972 h 0.73725 q -0.003,-0.19464 -0.10163,-0.29972 -0.0982,-0.1068 -0.26527,-0.1068 z m 0.0741,1.62264 q -0.46509,0 -0.72692,-0.25666 -0.26182,-0.25666 -0.26182,-0.72691 0,-0.48404 0.24115,-0.74759 0.24288,-0.26527 0.67007,-0.26527 0.40825,0 0.63562,0.23254 0.22738,0.23255 0.22738,0.64251 v 0.25494 h -1.24196 q 0.009,0.22393 0.13264,0.34968 0.12402,0.12574 0.34796,0.12574 0.17397,0 0.329,-0.0362 0.15503,-0.0362 0.32384,-0.11541 v 0.40652 q -0.1378,0.0689 -0.29456,0.10163 -0.15675,0.0344 -0.3824,0.0344 z"
         style="stroke-width:0.35277778"
         id="path114"
         inkscape:connector-curvature="0" />
      <path
         d="m 139.72346,160.96592 q 0.1068,0 0.17743,0.0155 l -0.0396,0.49265 q -0.0637,-0.0172 -0.15503,-0.0172 -0.25149,0 -0.39274,0.12919 -0.13953,0.12919 -0.13953,0.36173 v 0.98013 h -0.52538 v -1.92581 h 0.39791 l 0.0775,0.32384 h 0.0258 q 0.0896,-0.16192 0.24116,-0.2601 0.15331,-0.0999 0.33245,-0.0999 z"
         style="stroke-width:0.35277778"
         id="path116"
         inkscape:connector-curvature="0" />
      <path
         d="m 141.58565,161.96155 q 0,0.28595 0.093,0.43236 0.0947,0.14642 0.30661,0.14642 0.21015,0 0.30145,-0.1447 0.093,-0.14641 0.093,-0.43408 0,-0.28594 -0.093,-0.42891 -0.093,-0.14297 -0.30489,-0.14297 -0.21015,0 -0.30317,0.14297 -0.093,0.14125 -0.093,0.42891 z m 1.33153,0 q 0,0.47026 -0.24805,0.73553 -0.24804,0.26527 -0.69074,0.26527 -0.27733,0 -0.4892,-0.12058 -0.21188,-0.1223 -0.32556,-0.34967 -0.11369,-0.22738 -0.11369,-0.53055 0,-0.47198 0.24632,-0.7338 0.24633,-0.26183 0.69247,-0.26183 0.27733,0 0.4892,0.12058 0.21187,0.12058 0.32556,0.34623 0.11369,0.22565 0.11369,0.52882 z"
         style="stroke-width:0.35277778"
         id="path118"
         inkscape:connector-curvature="0" />
      <path
         d="m 144.41566,161.39656 h -0.45475 v 1.53134 h -0.52538 v -1.53134 h -0.28939 v -0.25322 l 0.28939,-0.14125 v -0.14125 q 0,-0.329 0.16192,-0.48059 0.16192,-0.15158 0.51848,-0.15158 0.27217,0 0.48404,0.081 l -0.13436,0.38585 q -0.15847,-0.0499 -0.29283,-0.0499 -0.11197,0 -0.16192,0.0672 -0.0499,0.0655 -0.0499,0.16881 v 0.12057 h 0.45475 z"
         style="stroke-width:0.35277778"
         id="path120"
         inkscape:connector-curvature="0" />
      <path
         d="m 146.8566,162.9279 -0.10163,-0.26183 h -0.0138 q -0.13263,0.16709 -0.27388,0.23255 -0.13953,0.0637 -0.36518,0.0637 -0.27733,0 -0.43753,-0.15847 -0.15847,-0.15848 -0.15847,-0.45131 0,-0.30661 0.21359,-0.45131 0.21532,-0.14641 0.64768,-0.16192 l 0.33417,-0.0103 v -0.0844 q 0,-0.29283 -0.29972,-0.29283 -0.23082,0 -0.5426,0.13953 l -0.17398,-0.35485 q 0.33245,-0.17397 0.73725,-0.17397 0.38757,0 0.59428,0.1688 0.20671,0.16881 0.20671,0.51332 v 1.2833 z m -0.15503,-0.89228 -0.20326,0.007 q -0.2291,0.007 -0.34106,0.0827 -0.11197,0.0758 -0.11197,0.23083 0,0.22221 0.25494,0.22221 0.18259,0 0.29111,-0.10508 0.11024,-0.10508 0.11024,-0.27905 z"
         style="stroke-width:0.35277778"
         id="path122"
         inkscape:connector-curvature="0" />
      <path
         d="m 148.22291,162.9279 -0.7338,-1.92581 h 0.54949 l 0.37207,1.09727 q 0.062,0.20843 0.0775,0.39446 h 0.0103 q 0.009,-0.16536 0.0775,-0.39446 l 0.37035,-1.09727 h 0.54949 l -0.7338,1.92581 z"
         style="stroke-width:0.35277778"
         id="path124"
         inkscape:connector-curvature="0" />
      <path
         d="m 150.56886,161.33971 q -0.16709,0 -0.26183,0.1068 -0.0947,0.10508 -0.10852,0.29972 h 0.73725 q -0.003,-0.19464 -0.10163,-0.29972 -0.0982,-0.1068 -0.26527,-0.1068 z m 0.0741,1.62264 q -0.46509,0 -0.72692,-0.25666 -0.26182,-0.25666 -0.26182,-0.72691 0,-0.48404 0.24115,-0.74759 0.24288,-0.26527 0.67007,-0.26527 0.40825,0 0.63562,0.23254 0.22738,0.23255 0.22738,0.64251 v 0.25494 h -1.24196 q 0.009,0.22393 0.13264,0.34968 0.12402,0.12574 0.34795,0.12574 0.17398,0 0.32901,-0.0362 0.15503,-0.0362 0.32384,-0.11541 v 0.40652 q -0.1378,0.0689 -0.29456,0.10163 -0.15675,0.0344 -0.3824,0.0344 z"
         style="stroke-width:0.35277778"
         id="path126"
         inkscape:connector-curvature="0" />
      <path
         d="m 152.9304,160.96592 q 0.1068,0 0.17743,0.0155 l -0.0396,0.49265 q -0.0637,-0.0172 -0.15503,-0.0172 -0.25149,0 -0.39274,0.12919 -0.13953,0.12919 -0.13953,0.36173 v 0.98013 h -0.52538 v -1.92581 h 0.39791 l 0.0775,0.32384 h 0.0258 q 0.0896,-0.16192 0.24116,-0.2601 0.15331,-0.0999 0.33245,-0.0999 z"
         style="stroke-width:0.35277778"
         id="path128"
         inkscape:connector-curvature="0" />
      <path
         d="m 154.60994,162.9279 -0.10163,-0.26183 h -0.0138 q -0.13263,0.16709 -0.27388,0.23255 -0.13953,0.0637 -0.36518,0.0637 -0.27733,0 -0.43753,-0.15847 -0.15847,-0.15848 -0.15847,-0.45131 0,-0.30661 0.21359,-0.45131 0.21532,-0.14641 0.64768,-0.16192 l 0.33418,-0.0103 v -0.0844 q 0,-0.29283 -0.29973,-0.29283 -0.23082,0 -0.5426,0.13953 l -0.17398,-0.35485 q 0.33245,-0.17397 0.73725,-0.17397 0.38758,0 0.59428,0.1688 0.20671,0.16881 0.20671,0.51332 v 1.2833 z m -0.15502,-0.89228 -0.20327,0.007 q -0.22909,0.007 -0.34106,0.0827 -0.11197,0.0758 -0.11197,0.23083 0,0.22221 0.25494,0.22221 0.18259,0 0.29111,-0.10508 0.11025,-0.10508 0.11025,-0.27905 z"
         style="stroke-width:0.35277778"
         id="path130"
         inkscape:connector-curvature="0" />
      <path
         d="m 157.19411,161.00209 v 0.267 l -0.30145,0.0775 q 0.0827,0.12919 0.0827,0.28939 0,0.31006 -0.21705,0.48404 -0.21531,0.17225 -0.59944,0.17225 l -0.0947,-0.005 -0.0775,-0.009 q -0.081,0.062 -0.081,0.13781 0,0.11368 0.28939,0.11368 h 0.32729 q 0.31694,0 0.48231,0.13608 0.16709,0.13609 0.16709,0.39964 0,0.33762 -0.2825,0.52365 -0.28078,0.18604 -0.80788,0.18604 -0.40307,0 -0.61667,-0.14125 -0.21187,-0.13953 -0.21187,-0.39274 0,-0.17398 0.10852,-0.29111 0.10852,-0.11714 0.31867,-0.16709 -0.081,-0.0344 -0.14125,-0.11197 -0.0603,-0.0792 -0.0603,-0.16708 0,-0.11025 0.0637,-0.18259 0.0637,-0.0741 0.18431,-0.1447 -0.15159,-0.0655 -0.24116,-0.21015 -0.0879,-0.14469 -0.0879,-0.34106 0,-0.31523 0.20498,-0.48748 0.20499,-0.17226 0.58567,-0.17226 0.081,0 0.1912,0.0155 0.11197,0.0138 0.14298,0.0207 z m -1.48656,2.19797 q 0,0.10853 0.10335,0.17054 0.10508,0.062 0.29284,0.062 0.28249,0 0.44269,-0.0775 0.1602,-0.0775 0.1602,-0.21187 0,-0.10852 -0.0947,-0.14986 -0.0947,-0.0413 -0.29284,-0.0413 h -0.27216 q -0.14469,0 -0.24288,0.0672 -0.0965,0.0689 -0.0965,0.18086 z m 0.1912,-1.56751 q 0,0.15675 0.0706,0.24804 0.0723,0.0913 0.21876,0.0913 0.14814,0 0.21704,-0.0913 0.0689,-0.0913 0.0689,-0.24804 0,-0.34796 -0.28594,-0.34796 -0.28939,0 -0.28939,0.34796 z"
         style="stroke-width:0.35277778"
         id="path132"
         inkscape:connector-curvature="0" />
      <path
         d="m 158.30845,161.33971 q -0.16708,0 -0.26182,0.1068 -0.0947,0.10508 -0.10852,0.29972 h 0.73725 q -0.003,-0.19464 -0.10163,-0.29972 -0.0982,-0.1068 -0.26528,-0.1068 z m 0.0741,1.62264 q -0.46509,0 -0.72691,-0.25666 -0.26183,-0.25666 -0.26183,-0.72691 0,-0.48404 0.24116,-0.74759 0.24288,-0.26527 0.67007,-0.26527 0.40824,0 0.63562,0.23254 0.22737,0.23255 0.22737,0.64251 v 0.25494 h -1.24195 q 0.009,0.22393 0.13263,0.34968 0.12403,0.12574 0.34796,0.12574 0.17398,0 0.329,-0.0362 0.15503,-0.0362 0.32384,-0.11541 v 0.40652 q -0.1378,0.0689 -0.29455,0.10163 -0.15675,0.0344 -0.38241,0.0344 z"
         style="stroke-width:0.35277778"
         id="path134"
         inkscape:connector-curvature="0" />
      <path
         d="m 160.93871,162.35602 q 0,0.29627 -0.2067,0.4513 -0.20499,0.15503 -0.61495,0.15503 -0.21015,0 -0.35829,-0.0293 -0.14814,-0.0276 -0.27733,-0.0827 v -0.43408 q 0.14642,0.0689 0.32901,0.11541 0.18431,0.0465 0.32383,0.0465 0.28595,0 0.28595,-0.16537 0,-0.062 -0.0379,-0.0999 -0.0379,-0.0396 -0.13091,-0.0879 -0.093,-0.0499 -0.24805,-0.11541 -0.22221,-0.093 -0.32728,-0.17225 -0.10336,-0.0792 -0.15159,-0.18087 -0.0465,-0.10335 -0.0465,-0.25321 0,-0.25666 0.1981,-0.39619 0.19981,-0.14125 0.56499,-0.14125 0.34796,0 0.67696,0.15158 l -0.15847,0.37897 q -0.1447,-0.062 -0.27044,-0.10164 -0.12575,-0.0396 -0.25666,-0.0396 -0.23254,0 -0.23254,0.12574 0,0.0706 0.0741,0.1223 0.0758,0.0517 0.32901,0.15331 0.22566,0.0913 0.33073,0.17053 0.10508,0.0792 0.15503,0.18259 0.0499,0.10335 0.0499,0.24633 z"
         style="stroke-width:0.35277778"
         id="path136"
         inkscape:connector-curvature="0" />
    </g>
  </g>
</svg>
