<?xml version="1.0" encoding="UTF-8" standalone="no"?>
<!-- Created with Inkscape (http://www.inkscape.org/) -->

<svg
   xmlns:dc="http://purl.org/dc/elements/1.1/"
   xmlns:cc="http://creativecommons.org/ns#"
   xmlns:rdf="http://www.w3.org/1999/02/22-rdf-syntax-ns#"
   xmlns:svg="http://www.w3.org/2000/svg"
   xmlns="http://www.w3.org/2000/svg"
   xmlns:sodipodi="http://sodipodi.sourceforge.net/DTD/sodipodi-0.dtd"
   xmlns:inkscape="http://www.inkscape.org/namespaces/inkscape"
   width="108.10063mm"
   height="38.56496mm"
   viewBox="0 0 108.10063 38.56496"
   version="1.1"
   id="svg4234"
   inkscape:version="0.92.4 (5da689c313, 2019-01-14)"
   sodipodi:docname="docs.svg">
  <defs
     id="defs4228" />
  <sodipodi:namedview
     id="base"
     pagecolor="#ffffff"
     bordercolor="#666666"
     borderopacity="1.0"
     inkscape:pageopacity="0.0"
     inkscape:pageshadow="2"
     inkscape:zoom="1.4"
     inkscape:cx="-21.705406"
     inkscape:cy="90.578748"
     inkscape:document-units="mm"
     inkscape:current-layer="layer1"
     showgrid="false"
     fit-margin-top="0"
     fit-margin-left="0"
     fit-margin-right="0"
     fit-margin-bottom="0"
     inkscape:window-width="2560"
     inkscape:window-height="1377"
     inkscape:window-x="-8"
     inkscape:window-y="-8"
     inkscape:window-maximized="1" />
  <metadata
     id="metadata4231">
    <rdf:RDF>
      <cc:Work
         rdf:about="">
        <dc:format>image/svg+xml</dc:format>
        <dc:type
           rdf:resource="http://purl.org/dc/dcmitype/StillImage" />
        <dc:title />
      </cc:Work>
    </rdf:RDF>
  </metadata>
  <g
     inkscape:label="Layer 1"
     inkscape:groupmode="layer"
     id="layer1"
     transform="translate(-57.83064,-128.03895)">
    <path
       d="m 165.84661,129.13962 c 0,-0.56057 -0.45544,-1.016 -1.016,-1.016 H 58.931307 c -0.560741,0 -1.016,0.45543 -1.016,1.016 v 7.32296 c 0,0.56074 0.455259,1.016 1.016,1.016 H 164.83061 c 0.56056,0 1.016,-0.45526 1.016,-1.016 z"
       style="fill:#8cd8f6;fill-opacity:1;fill-rule:evenodd;stroke:#006993;stroke-width:0.16933332;stroke-linecap:butt;stroke-linejoin:miter;stroke-miterlimit:10;stroke-dasharray:none;stroke-opacity:1"
       id="path4246"
       inkscape:connector-curvature="0" />
    <path
       d="m 78.470574,129.13962 c 0,-0.56057 -0.455225,-1.016 -1.016,-1.016 H 58.931307 c -0.560741,0 -1.016,0.45543 -1.016,1.016 v 7.32296 c 0,0.56074 0.455259,1.016 1.016,1.016 h 18.523267 c 0.560775,0 1.016,-0.45526 1.016,-1.016 z"
       style="fill:#43add7;fill-opacity:1;fill-rule:evenodd;stroke:#006993;stroke-width:0.16933332;stroke-linecap:butt;stroke-linejoin:miter;stroke-miterlimit:10;stroke-dasharray:none;stroke-opacity:1"
       id="path4248"
       inkscape:connector-curvature="0" />
    <text
       id="text4254"
       style="font-variant:normal;font-weight:800;font-size:3.52777767px;font-family:'Open Sans';-inkscape-font-specification:OpenSans-ExtraBold;writing-mode:lr-tb;fill:#272727;fill-opacity:1;fill-rule:nonzero;stroke:none;stroke-width:0.35277778"
       x="64.831406"
       y="134.06122">
      <tspan
         id="tspan4252"
         sodipodi:role="line"
         y="134.06122"
         x="64.831406 67.442673 69.378716"
         style="stroke-width:0.35277778">GET</tspan>
    </text>
    <text
       id="text4260"
       style="font-variant:normal;font-weight:bold;font-size:3.52777767px;font-family:Consolas;-inkscape-font-specification:Consolas-Bold;writing-mode:lr-tb;fill:#272727;fill-opacity:1;fill-rule:nonzero;stroke:none;stroke-width:0.35277778"
       x="82.449486"
       y="133.88123">
      <tspan
         id="tspan4258"
         sodipodi:role="line"
         y="133.88123"
         x="82.449486 84.389053 86.328629 88.268204 90.207771 92.147346 94.086914 96.026489 97.966064 99.905632 101.84521 103.78477 105.72435"
         style="stroke-width:0.35277778">/api/spectrum</tspan>
    </text>
    <text
       id="text4266"
       style="font-variant:normal;font-weight:bold;font-size:3.52777767px;font-family:'Open Sans';-inkscape-font-specification:OpenSans-Bold;writing-mode:lr-tb;fill:#272727;fill-opacity:1;fill-rule:nonzero;stroke:none;stroke-width:0.35277778"
       x="111.40559"
       y="133.88724">
      <tspan
         id="tspan4264"
         sodipodi:role="line"
         y="133.88724"
         x="111.40559 113.65349 115.97195 117.57391 119.10532 121.18953 123.50798 125.95556 127.70921 129.94159 132.0258 133.83978 135.3712 136.97316 139.29161 143.67206 145.42572 147.74417 149.87531 152.10768 153.86134 156.17979 158.36385"
         style="stroke-width:0.35277778">Currentspectrumsnapshot</tspan>
    </text>
    <path
       d="m 165.84661,143.66013 c 0,-0.56074 -0.45544,-1.016 -1.016,-1.016 H 58.931307 c -0.560741,0 -1.016,0.45526 -1.016,1.016 v 7.32278 c 0,0.56074 0.455259,1.016 1.016,1.016 H 164.83061 c 0.56056,0 1.016,-0.45526 1.016,-1.016 z"
       style="fill:#8fd8f6;fill-opacity:1;fill-rule:evenodd;stroke:#006993;stroke-width:0.16933332;stroke-linecap:butt;stroke-linejoin:miter;stroke-miterlimit:10;stroke-dasharray:none;stroke-opacity:1"
       id="path4268"
       inkscape:connector-curvature="0" />
    <path
       d="m 78.470574,143.66013 c 0,-0.56074 -0.455225,-1.016 -1.016,-1.016 H 58.931307 c -0.560741,0 -1.016,0.45526 -1.016,1.016 v 7.32278 c 0,0.56074 0.455259,1.016 1.016,1.016 h 18.523267 c 0.560775,0 1.016,-0.45526 1.016,-1.016 z"
       style="fill:#43add7;fill-opacity:1;fill-rule:evenodd;stroke:#006993;stroke-width:0.16933332;stroke-linecap:butt;stroke-linejoin:miter;stroke-miterlimit:10;stroke-dasharray:none;stroke-opacity:1"
       id="path4270"
       inkscape:connector-curvature="0" />
    <text
       id="text4276"
       style="font-variant:normal;font-weight:800;font-size:3.52777767px;font-family:'Open Sans';-inkscape-font-specification:OpenSans-ExtraBold;writing-mode:lr-tb;fill:#272727;fill-opacity:1;fill-rule:nonzero;stroke:none;stroke-width:0.35277778"
       x="64.831406"
       y="148.58154">
      <tspan
         id="tspan4274"
         sodipodi:role="line"
         y="148.58154"
         x="64.831406 67.442673 69.378716"
         style="stroke-width:0.35277778">GET</tspan>
    </text>
    <text
       id="text4282"
       style="font-variant:normal;font-weight:bold;font-size:3.52777767px;font-family:Consolas;-inkscape-font-specification:Consolas-Bold;writing-mode:lr-tb;fill:#272727;fill-opacity:1;fill-rule:nonzero;stroke:none;stroke-width:0.35277778"
       x="82.449486"
       y="148.40157">
      <tspan
         id="tspan4280"
         sodipodi:role="line"
         y="148.40157"
         x="82.449486 84.389053 86.328629 88.268204 90.207771 92.147346 94.086914 96.026489 97.966064 99.905632 101.84521 103.78477 105.72435"
         style="stroke-width:0.35277778">/api/averages</tspan>
    </text>
    <text
       id="text4288"
       style="font-variant:normal;font-weight:bold;font-size:3.52777767px;font-family:'Open Sans';-inkscape-font-specification:OpenSans-Bold;writing-mode:lr-tb;fill:#272727;fill-opacity:1;fill-rule:nonzero;stroke:none;stroke-width:0.35277778"
       x="111.40559"
       y="148.40756">
      <tspan
         id="tspan4286"
         sodipodi:role="line"
         y="148.40756"
         x="111.40559 113.65349 115.97195 117.57391 119.10532 121.18953 123.50798 125.95556 128.27402 130.59247 134.0564 136.28877 138.37299 140.89146 143.07552 145.35799 147.48911 149.49571 151.57993 153.11133 155.24246 157.23531 159.31952"
         style="stroke-width:0.35277778">Currentnumberofaverages</tspan>
    </text>
    <path
       d="m 165.84661,158.18046 c 0,-0.56074 -0.45544,-1.016 -1.016,-1.016 H 58.931307 c -0.560741,0 -1.016,0.45526 -1.016,1.016 v 7.32278 c 0,0.56074 0.455259,1.016 1.016,1.016 H 164.83061 c 0.56056,0 1.016,-0.45526 1.016,-1.016 z"
       style="fill:#99e999;fill-opacity:1;fill-rule:evenodd;stroke:#009314;stroke-width:0.16933332;stroke-linecap:butt;stroke-linejoin:miter;stroke-miterlimit:10;stroke-dasharray:none;stroke-opacity:1"
       id="path4290"
       inkscape:connector-curvature="0" />
    <path
       d="m 78.470574,158.18046 c 0,-0.56074 -0.455225,-1.016 -1.016,-1.016 H 58.931307 c -0.560741,0 -1.016,0.45526 -1.016,1.016 v 7.32278 c 0,0.56074 0.455259,1.016 1.016,1.016 h 18.523267 c 0.560775,0 1.016,-0.45526 1.016,-1.016 z"
       style="fill:#41d741;fill-opacity:1;fill-rule:evenodd;stroke:#009314;stroke-width:0.16933332;stroke-linecap:butt;stroke-linejoin:miter;stroke-miterlimit:10;stroke-dasharray:none;stroke-opacity:1"
       id="path4292"
       inkscape:connector-curvature="0" />
    <text
       id="text4298"
       style="font-variant:normal;font-weight:800;font-size:3.52777767px;font-family:'Open Sans';-inkscape-font-specification:OpenSans-ExtraBold;writing-mode:lr-tb;fill:#272727;fill-opacity:1;fill-rule:nonzero;stroke:none;stroke-width:0.35277778"
       x="63.520523"
       y="163.10188">
      <tspan
         id="tspan4296"
         sodipodi:role="line"
         y="163.10188"
         x="63.520523 65.749374 68.560661 70.596542"
         style="stroke-width:0.35277778">POST</tspan>
    </text>
    <text
       id="text4304"
       style="font-variant:normal;font-weight:bold;font-size:3.52777767px;font-family:Consolas;-inkscape-font-specification:Consolas-Bold;writing-mode:lr-tb;fill:#272727;fill-opacity:1;fill-rule:nonzero;stroke:none;stroke-width:0.35277778"
       x="82.449486"
       y="162.92191">
      <tspan
         id="tspan4302"
         sodipodi:role="line"
         y="162.92191"
         x="82.449486 84.389053 86.328629 88.268204 90.207771 92.147346 94.086914 96.026489 97.966064 99.905632 101.84521 103.78477 105.72435"
         style="stroke-width:0.35277778">/api/averages</tspan>
    </text>
    <text
       id="text4310"
       style="font-variant:normal;font-weight:bold;font-size:3.52777767px;font-family:'Open Sans';-inkscape-font-specification:OpenSans-Bold;writing-mode:lr-tb;fill:#272727;fill-opacity:1;fill-rule:nonzero;stroke:none;stroke-width:0.35277778"
       x="111.40559"
       y="162.9279">
      <tspan
         id="tspan4308"
         sodipodi:role="line"
         y="162.9279"
         x="111.40559 113.65349 115.97195 117.57391 119.10532 121.18953 123.50798 125.95556 128.27402 130.59247 134.0564 136.28877 138.37299 140.89146 143.07552 145.35799 147.48911 149.49571 151.57993 153.11133 155.24246 157.23531 159.31952"
         style="stroke-width:0.35277778">Currentnumberofaverages</tspan>
    </text>
  </g>
</svg>
