<?xml version="1.0" encoding="UTF-8" standalone="no"?><!DOCTYPE svg PUBLIC "-//W3C//DTD SVG 1.1//EN" "http://www.w3.org/Graphics/SVG/1.1/DTD/svg11.dtd"><svg width="100%" height="100%" viewBox="0 0 114 114" version="1.1" xmlns="http://www.w3.org/2000/svg" xmlns:xlink="http://www.w3.org/1999/xlink" xml:space="preserve" xmlns:serif="http://www.serif.com/" style="fill-rule:evenodd;clip-rule:evenodd;stroke-linejoin:round;stroke-miterlimit:2;"><g><path d="M85.039,113.386l28.347,0l0,-113.386l-70.866,0l0,28.346l42.519,0l0,85.04Z"/><path d="M0,8.504l0,-8.504l28.346,0l0,85.039l42.52,0l0,28.347l-70.866,0l0,-8.504l14.173,0l0,-5.669l-14.173,0l0,-5.67l5.578,0l0,-5.669l-5.578,0l0,-5.669l14.173,0l0,-5.67l-14.173,0l0,-5.669l5.578,0l0,-5.669l-5.578,0l0,-5.669l14.173,0l0,-5.67l-14.173,0l0,-5.669l5.578,0l0,-5.669l-5.578,0l0,-5.67l14.173,0l0,-5.669l-14.173,0l0,-5.669l5.578,0l0,-5.669l-5.578,0l0,-5.67l14.173,0l0,-5.669l-14.173,0Z"/></g></svg>