<?xml version="1.0" encoding="UTF-8" standalone="no"?><!DOCTYPE svg PUBLIC "-//W3C//DTD SVG 1.1//EN" "http://www.w3.org/Graphics/SVG/1.1/DTD/svg11.dtd"><svg width="100%" height="100%" viewBox="0 0 114 114" version="1.1" xmlns="http://www.w3.org/2000/svg" xmlns:xlink="http://www.w3.org/1999/xlink" xml:space="preserve" xmlns:serif="http://www.serif.com/" style="fill-rule:evenodd;clip-rule:evenodd;stroke-linejoin:round;stroke-miterlimit:2;"><g><path d="M85.039,113.386l28.347,0l0,-113.386l-70.866,0l0,28.346l42.519,0l0,85.04Z" style="fill:url(#_Linear1);"/><path d="M0,8.504l0,-8.504l28.346,0l0,85.039l42.52,0l0,28.347l-70.866,0l0,-8.504l14.173,0l0,-5.669l-14.173,0l0,-5.67l5.578,0l0,-5.669l-5.578,0l0,-5.669l14.173,0l0,-5.67l-14.173,0l0,-5.669l5.578,0l0,-5.669l-5.578,0l0,-5.669l14.173,0l0,-5.67l-14.173,0l0,-5.669l5.578,0l0,-5.669l-5.578,0l0,-5.67l14.173,0l0,-5.669l-14.173,0l0,-5.669l5.578,0l0,-5.669l-5.578,0l0,-5.67l14.173,0l0,-5.669l-14.173,0Z" style="fill:url(#_Linear2);"/></g><defs><linearGradient id="_Linear1" x1="0" y1="0" x2="1" y2="0" gradientUnits="userSpaceOnUse" gradientTransform="matrix(113.386,113.386,-113.386,113.386,0,0)"><stop offset="0" style="stop-color:#00d677;stop-opacity:1"/><stop offset="1" style="stop-color:#009855;stop-opacity:1"/></linearGradient><linearGradient id="_Linear2" x1="0" y1="0" x2="1" y2="0" gradientUnits="userSpaceOnUse" gradientTransform="matrix(113.386,113.386,-113.386,113.386,-5.32724,10.5931)"><stop offset="0" style="stop-color:#a535ff;stop-opacity:1"/><stop offset="1" style="stop-color:#57009b;stop-opacity:1"/></linearGradient></defs></svg>