<?xml version="1.0" encoding="UTF-8" standalone="no"?><!DOCTYPE svg PUBLIC "-//W3C//DTD SVG 1.1//EN" "http://www.w3.org/Graphics/SVG/1.1/DTD/svg11.dtd"><svg width="100%" height="100%" viewBox="0 0 188 37" version="1.1" xmlns="http://www.w3.org/2000/svg" xmlns:xlink="http://www.w3.org/1999/xlink" xml:space="preserve" xmlns:serif="http://www.serif.com/" style="fill-rule:evenodd;clip-rule:evenodd;stroke-linejoin:round;stroke-miterlimit:2;"><path d="M153.65,28.227c-1.314,0 -2.52,-0.264 -3.615,-0.792c-1.096,-0.529 -2.03,-1.25 -2.804,-2.166c-0.773,-0.915 -1.372,-1.991 -1.798,-3.228c-0.425,-1.238 -0.638,-2.578 -0.638,-4.022c0,-1.521 0.232,-2.926 0.696,-4.215c0.464,-1.289 1.115,-2.397 1.953,-3.325c0.838,-0.928 1.837,-1.656 2.997,-2.185c1.16,-0.528 2.436,-0.792 3.828,-0.792c1.469,0 2.758,0.29 3.867,0.87c1.108,0.58 1.985,1.424 2.629,2.532l0,-3.016l6.38,0l0,18.483c0,1.599 -0.296,3.042 -0.889,4.331c-0.593,1.289 -1.431,2.385 -2.513,3.287c-1.083,0.902 -2.385,1.605 -3.906,2.107c-1.521,0.503 -3.209,0.754 -5.065,0.754c-2.166,0 -4.048,-0.335 -5.646,-1.005c-1.598,-0.67 -3.016,-1.637 -4.253,-2.9l3.866,-4.022c0.748,0.697 1.644,1.283 2.688,1.76c1.044,0.477 2.159,0.715 3.345,0.715c0.67,0 1.308,-0.09 1.914,-0.27c0.605,-0.181 1.14,-0.471 1.604,-0.87c0.464,-0.4 0.832,-0.922 1.102,-1.567c0.271,-0.644 0.406,-1.417 0.406,-2.32l0,-1.314c-0.592,1.082 -1.437,1.882 -2.532,2.397c-1.096,0.516 -2.301,0.773 -3.616,0.773Zm25.598,0.387c-1.778,0 -3.518,-0.29 -5.22,-0.87c-1.701,-0.58 -3.145,-1.424 -4.331,-2.533l2.514,-4.408c1.263,0.851 2.481,1.508 3.654,1.972c1.173,0.464 2.249,0.696 3.229,0.696c1.031,0 1.546,-0.322 1.546,-0.966c0,-0.361 -0.199,-0.671 -0.599,-0.928c-0.4,-0.258 -1.179,-0.555 -2.339,-0.89c-1.444,-0.412 -2.649,-0.818 -3.616,-1.218c-0.967,-0.399 -1.753,-0.831 -2.359,-1.295c-0.605,-0.464 -1.037,-0.98 -1.295,-1.547c-0.258,-0.567 -0.387,-1.237 -0.387,-2.011c0,-1.031 0.207,-1.985 0.619,-2.861c0.413,-0.876 0.986,-1.637 1.721,-2.281c0.734,-0.645 1.611,-1.141 2.629,-1.489c1.018,-0.348 2.133,-0.522 3.345,-0.522c1.495,0 2.919,0.193 4.273,0.58c1.353,0.387 2.713,1.173 4.079,2.359l-2.784,4.408c-1.263,-0.825 -2.32,-1.412 -3.171,-1.76c-0.85,-0.348 -1.649,-0.522 -2.397,-0.522c-0.438,0 -0.799,0.084 -1.083,0.252c-0.283,0.167 -0.425,0.431 -0.425,0.792c0,0.387 0.206,0.703 0.619,0.948c0.412,0.245 1.224,0.522 2.436,0.831c1.469,0.387 2.706,0.793 3.712,1.218c1.005,0.425 1.811,0.89 2.417,1.392c0.605,0.503 1.037,1.07 1.295,1.702c0.258,0.631 0.387,1.359 0.387,2.184c0,1.057 -0.194,1.998 -0.58,2.823c-0.387,0.825 -0.948,1.534 -1.682,2.127c-0.735,0.593 -1.625,1.044 -2.669,1.353c-1.044,0.309 -2.223,0.464 -3.538,0.464Zm-103.486,-21.527l-10.68,0l0,-7.087l17.8,0l0,28.346l-7.12,0l0,-21.259Zm-48.891,21.18c-0.993,0 -1.923,-0.166 -2.788,-0.497c-0.866,-0.331 -1.611,-0.783 -2.235,-1.356c-0.624,-0.573 -1.114,-1.254 -1.471,-2.044c-0.356,-0.789 -0.534,-1.642 -0.534,-2.559c0,-1.018 0.216,-1.948 0.649,-2.788c0.433,-0.841 1.031,-1.566 1.795,-2.178c0.764,-0.611 1.675,-1.082 2.731,-1.413c1.057,-0.331 2.222,-0.497 3.496,-0.497c1.629,0 2.979,0.255 4.049,0.764l0,-0.611c0,-0.942 -0.274,-1.642 -0.822,-2.101c-0.547,-0.458 -1.432,-0.687 -2.655,-0.687c-1.145,0 -2.202,0.184 -3.17,0.554c-0.968,0.369 -1.986,0.91 -3.056,1.623l-2.101,-4.507c2.649,-1.706 5.666,-2.56 9.053,-2.56c3.209,0 5.679,0.713 7.411,2.14c1.731,1.426 2.597,3.565 2.597,6.417l0,3.896c0,0.688 0.102,1.165 0.306,1.432c0.203,0.268 0.56,0.427 1.069,0.478l0,6.112c-0.585,0.127 -1.139,0.222 -1.661,0.286c-0.522,0.064 -0.987,0.096 -1.395,0.096c-1.298,0 -2.285,-0.236 -2.96,-0.707c-0.675,-0.471 -1.114,-1.165 -1.318,-2.082l-0.153,-0.726c-0.891,1.146 -1.922,2.019 -3.094,2.617c-1.171,0.598 -2.419,0.898 -3.743,0.898Zm-19.751,-7.067l10.68,0l0,7.067l-17.8,0l0,-28.267l7.12,0l0,21.2Zm43.014,6.685l-6.303,0l0,-27.885l7.258,0l0,10.772c0.585,-1.095 1.413,-1.929 2.482,-2.502c1.07,-0.573 2.331,-0.86 3.782,-0.86c1.222,0 2.362,0.268 3.419,0.803c1.057,0.534 1.967,1.267 2.731,2.196c0.764,0.929 1.362,2.037 1.795,3.323c0.433,1.286 0.65,2.68 0.65,4.183c0,1.502 -0.236,2.884 -0.707,4.144c-0.471,1.261 -1.12,2.35 -1.948,3.266c-0.828,0.917 -1.814,1.637 -2.96,2.159c-1.146,0.522 -2.381,0.783 -3.706,0.783c-3.03,0 -5.195,-1.172 -6.493,-3.515l0,3.133Zm67.981,0.342l-7.347,0l0,-20.339l7.347,0l0,20.339Zm11.059,0l-7.347,0l0,-20.339l6.612,0l0,3.016c0.722,-1.108 1.733,-1.952 3.035,-2.532c1.302,-0.58 2.842,-0.87 4.621,-0.87c1.392,0 2.494,0.251 3.306,0.754c0.812,0.502 1.431,1.127 1.856,1.875c0.426,0.748 0.703,1.547 0.832,2.397c0.128,0.851 0.193,1.624 0.193,2.32l0,13.379l-7.347,0l0,-11.445c0,-1.006 -0.226,-1.734 -0.677,-2.185c-0.451,-0.451 -0.973,-0.677 -1.566,-0.677c-0.618,0 -1.276,0.271 -1.972,0.812c-0.696,0.542 -1.211,1.238 -1.546,2.088l0,11.407Zm-35.072,0l-7.347,0l0,-28.227l7.347,0l0,10.904c0.722,-1.108 1.663,-1.952 2.823,-2.532c1.16,-0.58 2.461,-0.87 3.905,-0.87c1.418,0 2.552,0.244 3.403,0.734c0.851,0.49 1.495,1.102 1.933,1.837c0.438,0.735 0.722,1.527 0.851,2.378c0.129,0.851 0.193,1.65 0.193,2.397l0,13.379l-7.347,0l0,-11.445c0,-1.006 -0.225,-1.734 -0.676,-2.185c-0.451,-0.451 -1.012,-0.677 -1.682,-0.677c-0.232,0 -0.509,0.071 -0.832,0.213c-0.322,0.142 -0.644,0.335 -0.966,0.58c-0.323,0.245 -0.626,0.548 -0.909,0.909c-0.284,0.361 -0.516,0.76 -0.696,1.198l0,11.407Zm-65.054,-5.155c0.433,0 0.879,-0.07 1.337,-0.21c0.459,-0.14 0.866,-0.325 1.223,-0.554c0.28,-0.204 0.509,-0.427 0.687,-0.669c0.178,-0.242 0.268,-0.49 0.268,-0.745l0,-1.489c-0.433,-0.153 -0.905,-0.28 -1.414,-0.382c-0.509,-0.102 -0.968,-0.153 -1.375,-0.153c-0.891,0 -1.63,0.216 -2.215,0.649c-0.586,0.433 -0.879,0.981 -0.879,1.643c0,0.56 0.223,1.018 0.668,1.375c0.446,0.356 1.013,0.535 1.7,0.535Zm127.232,-0.645c0.747,0 1.398,-0.174 1.952,-0.522c0.555,-0.348 1.077,-0.87 1.566,-1.566l0,-3.635c-0.36,-0.928 -0.895,-1.662 -1.604,-2.204c-0.709,-0.541 -1.45,-0.812 -2.224,-0.812c-0.515,0 -0.999,0.123 -1.45,0.368c-0.451,0.245 -0.844,0.567 -1.179,0.966c-0.335,0.4 -0.593,0.877 -0.773,1.431c-0.181,0.554 -0.271,1.141 -0.271,1.76c0,1.263 0.374,2.281 1.121,3.054c0.748,0.774 1.702,1.16 2.862,1.16Zm-101.754,-0.272c1.197,0 2.159,-0.382 2.884,-1.146c0.726,-0.764 1.089,-1.783 1.089,-3.056c0,-0.611 -0.095,-1.184 -0.286,-1.719c-0.191,-0.535 -0.446,-1.006 -0.764,-1.413c-0.319,-0.408 -0.701,-0.726 -1.146,-0.955c-0.446,-0.229 -0.936,-0.344 -1.471,-0.344c-0.764,0 -1.49,0.274 -2.177,0.821c-0.688,0.548 -1.21,1.267 -1.566,2.159l0,3.59c0.942,1.375 2.088,2.063 3.437,2.063Zm63.589,-15.968l-7.347,0l0,-6.187l7.347,0l0,6.187Z" style="fill-opacity:0.9;fill-rule:nonzero;"/></svg>